<?xml version="1.0" encoding="utf-8"?>
<!-- Generator: Adobe Illustrator 19.1.0, SVG Export Plug-In . SVG Version: 6.00 Build 0)  -->
<svg version="1.1" id="Layer_1" xmlns="http://www.w3.org/2000/svg" xmlns:xlink="http://www.w3.org/1999/xlink" x="0px" y="0px"
	 viewBox="0 0 1410 355" style="enable-background:new 0 0 1410 355;" xml:space="preserve">
<style type="text/css">
	.st0{fill:#FFFFFF;}
</style>
<g id="XMLID_2_">
	<path id="XMLID_90_" class="st0" d="M226.5,80.7c-1.4,0-2.8,0.1-4.2,0.2c0,0,0,0,0,0c-0.1,0-0.1,0-0.2,0c-0.2,0-0.4,0-0.5,0.1
		c-0.3,0-0.6,0.1-0.9,0.1c0,0-0.1,0-0.1,0c-0.4,0-0.7,0.1-1.1,0.2c-0.4,0.1-0.8,0.1-1.2,0.2c0,0,0,0,0,0c0,0,0,0,0,0
		c-0.3,0-0.5,0.1-0.8,0.1c-0.1,0-0.2,0-0.3,0.1c-0.4,0.1-0.8,0.2-1.2,0.3c-0.3,0.1-0.6,0.1-0.9,0.2c-0.2,0.1-0.5,0.1-0.7,0.2
		c-0.2,0-0.3,0.1-0.5,0.1c-0.1,0-0.1,0-0.2,0.1c-0.3,0.1-0.6,0.2-1,0.3c-0.1,0-0.1,0-0.2,0.1c-0.3,0.1-0.7,0.2-1,0.3
		c-0.2,0.1-0.4,0.1-0.6,0.2c-0.2,0.1-0.4,0.2-0.6,0.2c-0.7,0.3-1.5,0.6-2.2,0.9c0,0,0,0,0,0c0,0-0.1,0-0.1,0
		c-0.6,0.3-1.2,0.5-1.8,0.8c-0.5,0.3-1.1,0.5-1.6,0.8c0,0,0,0,0,0c-0.1,0-0.1,0.1-0.2,0.1c-0.5,0.3-1,0.5-1.4,0.8c0,0,0,0-0.1,0
		c0,0,0,0,0,0c-0.2,0.2-0.5,0.3-0.7,0.5c0,0,0,0,0,0c-0.5,0.3-1,0.7-1.6,1c-0.2,0.2-0.5,0.3-0.7,0.5c0,0,0,0,0,0
		c-0.2,0.2-0.5,0.4-0.7,0.5c0,0,0,0,0,0c-0.2,0.2-0.5,0.4-0.7,0.6c-0.2,0.2-0.4,0.3-0.6,0.5c0,0-0.1,0.1-0.1,0.1c0,0,0,0,0,0
		c0,0,0,0-0.1,0.1c-0.4,0.4-0.8,0.8-1.3,1.2c-0.2,0.2-0.4,0.4-0.6,0.7c-0.2,0.2-0.4,0.5-0.7,0.7c0,0,0,0,0,0
		c-0.2,0.2-0.4,0.5-0.6,0.7c0,0,0,0-0.1,0.1c-0.2,0.2-0.3,0.3-0.5,0.5c-1.9,2.4-3.5,4.8-4.9,7.4c-0.5,1-1,1.9-1.5,2.9
		c0,0.1,0,0.1-0.1,0.1c-0.9,1.9-1.7,3.9-2.4,6c-0.6,1.8-1.2,3.6-1.7,5.5c-0.2,0.6-0.3,1.2-0.5,1.8c-1.8,7.4-2.5,15.2-2.5,22.8v12.8
		c0,5.7,0.4,11.5,1.4,17.2c0.1,0.6,0.2,1.3,0.3,1.9c0.7,3.8,1.7,7.5,2.9,11.1c0.7,2,1.5,4,2.4,6c0,0,0,0.1,0.1,0.1
		c0.5,1,1,2,1.5,2.9c1.4,2.6,3,5.1,4.9,7.4c0.2,0.2,0.3,0.3,0.5,0.5c0,0,0,0,0.1,0.1c0.2,0.2,0.4,0.5,0.6,0.7
		c0.2,0.3,0.5,0.5,0.7,0.8c0.2,0.2,0.4,0.4,0.6,0.7c0.2,0.2,0.4,0.4,0.7,0.6c0,0,0,0,0,0c0.2,0.2,0.4,0.4,0.7,0.6v0
		c0.2,0.2,0.5,0.4,0.7,0.6c0.1,0.1,0.2,0.2,0.3,0.2c0.1,0.1,0.3,0.2,0.4,0.3v0c0.2,0.2,0.5,0.4,0.7,0.5c0,0,0,0,0,0
		c0.2,0.2,0.5,0.3,0.7,0.5c0.5,0.4,1,0.7,1.5,1c0.3,0.2,0.5,0.3,0.8,0.5c0,0,0,0,0,0c0,0,0,0,0.1,0c0.5,0.3,0.9,0.6,1.4,0.8
		c0,0,0.1,0.1,0.1,0.1c0,0,0,0,0.1,0c0,0,0,0,0,0c0.5,0.3,1.1,0.5,1.6,0.8c0.6,0.3,1.2,0.5,1.7,0.8c0,0,0.1,0,0.1,0c0,0,0,0,0,0
		c0.7,0.3,1.4,0.6,2.2,0.9c0.2,0.1,0.4,0.2,0.6,0.2c0.2,0.1,0.3,0.1,0.5,0.2c0,0,0.1,0,0.1,0c0.7,0.2,1.4,0.5,2.1,0.7
		c0.2,0.1,0.4,0.1,0.6,0.2c0.2,0,0.3,0.1,0.5,0.1c0.1,0,0.2,0,0.2,0.1c0.3,0.1,0.6,0.2,0.9,0.2c0.4,0.1,0.8,0.2,1.2,0.2
		c0.4,0.1,0.7,0.2,1.1,0.2c0,0,0,0,0,0c0,0,0,0,0,0c0.4,0.1,0.8,0.1,1.2,0.2c0.4,0.1,0.7,0.1,1.1,0.2c0.1,0,0.1,0,0.1,0
		c0.3,0,0.6,0.1,0.9,0.1c0.2,0,0.4,0,0.6,0.1c0,0,0.1,0,0.2,0c0,0,0,0,0,0c1.4,0.1,2.8,0.2,4.2,0.2c0.2,0,0.5,0,0.7,0
		c0.6,0,1.3,0,1.9,0c0.1,0,0.1,0,0.2,0c0.6,0,1.2,0,1.9,0c0,0,0.1,0,0.1,0c0.2,0,0.5,0,0.7,0c1.4,0,2.8-0.1,4.2-0.2c0,0,0,0,0,0
		c0.1,0,0.1,0,0.2,0c0.2,0,0.4,0,0.6-0.1c0.3,0,0.6-0.1,0.9-0.1c0,0,0.1,0,0.1,0c0.4,0,0.7-0.1,1.1-0.2c0.4-0.1,0.8-0.1,1.2-0.2
		c0,0,0,0,0,0c0,0,0,0,0,0c0.4-0.1,0.7-0.1,1.1-0.2c0.4-0.1,0.8-0.2,1.2-0.2c0.5-0.1,1.1-0.3,1.6-0.4c0.5-0.2,1.1-0.3,1.6-0.5
		c0.6-0.2,1.2-0.4,1.8-0.6c0.2-0.1,0.4-0.2,0.6-0.2c0.7-0.3,1.5-0.6,2.2-0.9c0,0,0.1,0,0.1,0c0.6-0.3,1.2-0.5,1.8-0.8
		c0.5-0.3,1.1-0.5,1.6-0.8c0.1,0,0.2-0.1,0.3-0.1c0.5-0.3,1-0.5,1.4-0.8c0,0,0,0,0.1,0c0,0,0,0,0,0c0.3-0.2,0.5-0.3,0.8-0.5
		c0.5-0.3,1-0.7,1.5-1c0.3-0.2,0.5-0.3,0.7-0.5v0c0.1-0.1,0.2-0.2,0.3-0.3c0.1-0.1,0.3-0.2,0.4-0.3c0.2-0.2,0.5-0.4,0.7-0.6v0
		c0.2-0.2,0.5-0.4,0.7-0.6c0,0,0,0,0,0c0,0,0,0,0.1,0c0.4-0.4,0.9-0.8,1.3-1.2c0.2-0.2,0.4-0.4,0.7-0.7c0.2-0.3,0.5-0.5,0.7-0.8
		c0.1-0.1,0.2-0.2,0.2-0.3c0.1-0.2,0.3-0.3,0.4-0.4c0,0,0,0,0.1-0.1c0.2-0.2,0.3-0.3,0.5-0.5c1.9-2.4,3.5-4.9,4.9-7.4
		c0.5-1,1-1.9,1.5-2.9c0,0,0.1-0.1,0.1-0.1c0.9-1.9,1.7-3.9,2.4-6c0.7-2.1,1.4-4.2,1.9-6.4c0.2-1,0.5-1.9,0.7-2.9
		c0.1-0.5,0.2-1,0.3-1.5c1.2-6.4,1.7-12.9,1.8-19.4v-0.5c0-0.7,0-1.3,0-2c0-1.3,0-2.6,0-3.9c0-1.3,0-2.6,0-3.9c0-0.7,0-1.3,0-2v-0.5
		c0-8-0.8-16.1-2.7-23.8c-0.5-2.1-1.2-4.3-1.9-6.4c-0.7-2-1.5-4-2.4-6c0-0.1-0.1-0.1-0.1-0.1c-0.5-1-1-2-1.5-2.9
		c-1.4-2.6-3-5.1-4.9-7.4c-0.2-0.2-0.3-0.3-0.5-0.5c-0.2-0.3-0.5-0.5-0.7-0.8c-0.2-0.3-0.4-0.5-0.7-0.7c-0.2-0.2-0.4-0.4-0.7-0.7
		c-0.2-0.2-0.4-0.4-0.6-0.6c0,0,0,0,0,0c-0.2-0.2-0.4-0.4-0.6-0.6c0,0-0.1,0-0.1-0.1c-0.2-0.2-0.5-0.4-0.7-0.6l0,0
		c-0.2-0.2-0.5-0.4-0.7-0.6c0,0,0,0,0,0c-0.1-0.1-0.3-0.2-0.4-0.3c-0.1-0.1-0.2-0.2-0.4-0.3c-0.2-0.2-0.5-0.3-0.7-0.5
		c-0.5-0.4-1-0.7-1.6-1c-0.3-0.2-0.5-0.3-0.8-0.5c0,0,0,0,0,0c0,0,0,0-0.1,0c-0.5-0.3-1-0.6-1.4-0.8c-0.1,0-0.2-0.1-0.3-0.1
		c-0.5-0.3-1.1-0.5-1.6-0.8c-0.6-0.3-1.2-0.5-1.7-0.8c0,0-0.1,0-0.1,0c0,0,0,0,0,0c-0.7-0.3-1.5-0.6-2.2-0.9
		c-0.2-0.1-0.4-0.2-0.6-0.2c-0.6-0.2-1.2-0.4-1.8-0.6c-0.5-0.2-1.1-0.3-1.6-0.5c-0.2-0.1-0.5-0.1-0.7-0.2c-0.3-0.1-0.6-0.2-0.9-0.2
		c-0.4-0.1-0.8-0.2-1.2-0.3c-0.4-0.1-0.7-0.1-1.1-0.2c0,0,0,0,0,0c0,0,0,0,0,0c-0.4-0.1-0.8-0.1-1.2-0.2c-0.4-0.1-0.7-0.1-1.1-0.2
		c0,0-0.1,0-0.1,0c-0.3,0-0.6-0.1-0.9-0.1c-0.2,0-0.4,0-0.6-0.1c0,0-0.1,0-0.2,0c0,0,0,0,0,0c-1.4-0.1-2.8-0.2-4.2-0.2
		c-0.2,0-0.5,0-0.7,0c-0.7,0-1.3,0-1.9,0c-0.1,0-0.1,0-0.2,0c-0.6,0-1.3,0-1.9,0c0,0-0.1,0-0.1,0c-0.2,0-0.5,0-0.7,0L226.5,80.7z
		 M229.2,89.5c6.1,0.2,12.9,1.6,19.1,4.8c0,0,0,0,0,0c2,2.4,3.3,5.2,4.3,8.2c0,0,0,0.1,0,0.2c0.1,0.3,0.2,0.6,0.3,0.9
		c0.5,1.6,0.9,3.3,1.2,4.9c0,0,0,0.1,0,0.1c0.2,1,0.4,2.1,0.6,3.1c0.2,1,0.4,2.1,0.6,3.1c0.2,0.9,0.3,1.9,0.5,2.8
		c0,0.1,0,0.3,0.1,0.4c0.9,6.2,1.6,12.4,2,18.6c0.2,3.8,0.4,7.5,0.4,11.3c-0.1,10-0.9,20-2.4,29.9c0,0.1,0,0.3-0.1,0.4
		c-0.2,0.9-0.3,1.9-0.5,2.8c-0.4,2-0.8,4.1-1.2,6.2v0.1c-0.3,1.2-0.6,2.5-0.9,3.7c-0.1,0.4-0.2,0.8-0.4,1.2c-0.1,0.3-0.2,0.6-0.3,1
		c0,0,0,0.1,0,0.2c-1,2.9-2.3,5.7-4.3,8.2c0,0,0,0,0,0c-6.3,3.2-13,4.6-19.1,4.8c-6.1-0.2-12.9-1.6-19.1-4.8c0,0,0,0,0,0
		c-0.2-0.3-0.5-0.6-0.7-0.9c-1.6-2.2-2.7-4.7-3.6-7.2c0-0.1,0-0.1,0-0.2c-0.1-0.3-0.2-0.6-0.3-1c-0.6-1.9-1-3.8-1.4-5.7
		c0-0.2-0.1-0.4-0.1-0.6c-0.3-1.7-0.6-3.3-1-4.9c-0.2-0.9-0.3-1.9-0.5-2.8c0-0.1,0-0.3-0.1-0.4c-1.5-9.9-2.3-19.9-2.4-29.9
		c0-1.2,0-2.5,0.1-3.7c0-1.3,0.1-2.5,0.1-3.8c0.1-1.3,0.1-2.5,0.2-3.8c0.4-6.2,1.1-12.4,2-18.6c0-0.1,0-0.3,0.1-0.4
		c0.1-0.9,0.3-1.9,0.5-2.8c0.3-1.6,0.6-3.3,1-4.9c0.1-0.2,0.1-0.4,0.1-0.6c0.4-1.9,0.8-3.8,1.4-5.7c0.1-0.3,0.2-0.6,0.3-0.9
		c0-0.1,0-0.1,0-0.2c1-2.9,2.3-5.7,4.3-8.2c0,0,0,0,0,0C216.4,91.1,223.1,89.7,229.2,89.5L229.2,89.5z M229.2,89.5"/>
	<path id="XMLID_86_" class="st0" d="M288.6,83.7V94c10.9-0.4,11.6,3.6,12,8.8v91c0.4,6.2-2.4,9.1-12.2,8.9v10.4H317v-12.3l0.1-0.1
		v-47.1H345c2.7-0.1,7.2,0.1,8.5,5l16.3,54.5h24.8v-10.4c-5.8,0.2-10.5,0.2-12.4-3.3l-15.2-48.1c-2.5-5.3-5.2-4.6-5.1-5.2
		c1.3-0.7,4.4-2.1,6.5-5.6c16.5-31,8.7-56.8-11.7-57H288.6z M317.1,94h34.3c15.6,2.7,12.7,36.6,4.1,47.1c-1.7,2.4-3.3,2.1-6.1,2.1
		h-32.3V94z M317.1,94"/>
	<path id="XMLID_83_" class="st0" d="M403.2,83.8h-11.5v0H391v23.6h10.3c0.5-9.6,1.4-12.2,8.7-13.3h25.2l-0.1,8.7v91
		c0.4,6.2-2.4,9.1-12.2,8.9V213h40.8v-10.4c-9.8,0.2-12.5-2.7-12.2-8.9v-91l-0.1-8.7h25.2c7.3,1.1,8.2,3.7,8.7,13.3h10.3V83.8H495v0
		h-11.5H403.2z M403.2,83.8"/>
	<path id="XMLID_80_" class="st0" d="M506.7,83.7V94c10.9-0.4,11.6,3.6,12,8.8v91c0.4,6.2-2.4,9.1-12.2,8.9v10.4H535v-55.8
		c0.1-1.5,0.6-2.6,1.5-3.2c0,0,0,0,0.1,0c0,0,0,0,0,0c0.5-0.3,1.1-0.4,1.8-0.4c0.1,0,0.2,0,0.2,0h40.7c0.1,0,0.2,0,0.2,0
		c0.7,0,1.3,0.2,1.8,0.4c0,0,0.1,0.1,0.1,0.1c0.9,0.6,1.4,1.7,1.5,3.2v55.8h28.5v-10.4c-9.8,0.2-12.5-2.7-12.2-8.9v-91
		c0.4-5.1,1.1-9,11-8.9c0.3,0,0.7,0,1,0V83.7h-28.3v55c0,2.3-1.6,4.4-3.8,4.5h-40.3c-2.2-0.1-3.8-2.3-3.8-4.5v-55L506.7,83.7
		L506.7,83.7z M506.7,83.7"/>
	<path id="XMLID_77_" class="st0" d="M627.3,83.7V94c10.9-0.4,11.6,3.6,12,8.8v91c0.4,6.2-2.4,9.1-12.2,8.9v10.4h92.7v0h0.1v-23.6
		h-10.4c-1.7,11.8-2.1,12.6-9.9,13.2h-43.8v-49.2h26.9c5.8,0,6.2,3.5,6.6,12h10.4v-34.4h-10.4c-1.1,12.2-0.9,12-6.6,12h-26.9V94h45
		c7.3,1.1,8.1,3.7,8.7,13.3h10.3V83.7H719v0L627.3,83.7z M627.3,83.7"/>
	<path id="XMLID_74_" class="st0" d="M901.3,83.4L901.3,83.4L901.3,83.4L901.3,83.4l0.1,1.6c-1.4-0.7-35.1-6.4-47.1,5.1
		c-9.6,8.3-14.7,28.8-3.6,42.8c11.9,14.8,29,15.9,41,20.8c17.9,8.7,17.7,40.1,2.3,49.8c-8.5,5.2-19.9,6.2-31.7-0.5
		c-9.5-5-7.8-15-7.8-24.5h-10.4v34.4h10.4v-2.3c18.7,3.9,32.2,4,43.7,1.8c34.8-6.6,35.1-63.2,2.7-69.7c-12.1-1.5-28.9-6.7-35.2-16
		c-3.5-5.3-3.3-11.5-2.6-17.5c1.9-17,12.3-21.8,25.4-18.6c8.9,3.4,12.9,7.4,12.9,15.8h10.3V83.4L901.3,83.4z M901.3,83.4"/>
	<path id="XMLID_71_" class="st0" d="M937.4,83.8H926v0h-0.7v23.6h10.4c0.5-9.6,1.4-12.2,8.7-13.3h25.2l-0.1,8.7v91
		c0.4,6.2-2.4,9.1-12.2,8.9V213H998v-10.4c-9.8,0.2-12.5-2.7-12.2-8.9v-91l-0.1-8.7h25.2c7.3,1.1,8.2,3.7,8.7,13.3h10.4V83.8h-0.7v0
		h-11.5H937.4z M937.4,83.8"/>
	<path id="XMLID_68_" class="st0" d="M1041.3,83.7V94c10.9-0.4,11.6,3.6,12,8.8v91c0.4,6.2-2.4,9.1-12.2,8.9v10.4h92.7v0h0.1v-23.6
		h-10.4c-1.7,11.8-2.1,12.6-9.9,13.2h-43.8v-49.2h26.9c5.8,0,6.2,3.5,6.6,12h10.4v-34.4h-10.4c-1.1,12.2-0.9,12-6.6,12h-26.9V94h45
		c7.3,1.1,8.1,3.7,8.7,13.3h10.4V83.7h-0.7v0L1041.3,83.7z M1041.3,83.7"/>
	<path id="XMLID_64_" class="st0" d="M1150.4,83.7V94c10.9-0.4,11.6,3.6,12,8.8v91c0.4,6.2-2.4,9.1-12.2,8.9v10.4h28.6v-12.3
		l0.1-0.1v-47.1h27.9c2.7-0.1,7.2,0.1,8.5,5l16.3,54.5h24.8v-10.4c-5.8,0.2-10.5,0.2-12.4-3.3l-15.2-48.1c-2.5-5.3-5.3-4.6-5.1-5.2
		c1.3-0.7,4.4-2.1,6.5-5.6c16.5-31,8.6-56.8-11.6-57H1150.4z M1178.9,94h34.3c15.6,2.7,12.7,36.6,4.1,47.1c-1.7,2.4-3.3,2.1-6.1,2.1
		h-32.3V94z M1178.9,94"/>
	<path id="XMLID_61_" class="st0" d="M1266.2,83.7V94c0.3,0,0.7,0,1,0c9.9-0.1,10.7,3.8,11,8.9v91c0.4,6.2-2.4,9.1-12.2,8.9v10.4
		h22.8v-97.6l59.2,97.1l0.3,0.4h10.2l0.1-110.2c0.4-5,1.1-9,11-8.9c0.3,0,0.7,0,1,0V83.7h-22.6V181l-15.5-25.5l-15.1-24.8
		l-28.6-46.8l-0.1-0.2h-1.1H1266.2z M1266.2,83.7"/>
	<path id="XMLID_57_" class="st0" d="M771.2,83.8l-1.7,7.5l-24.4,102.4c-2.4,9-4.6,9.1-14.5,8.9V213h24l10.8-45.4h33.2l10.8,45.4h24
		v-10.4c-9.8,0.2-12,0.1-14.5-8.9L794.6,91.3l-1.7-7.5H771.2z M782.1,98.4l1.1,4.4v-0.5l13.1,54.8h-28.3l13.1-54.8v0.5L782.1,98.4z
		 M782.1,98.4"/>
	<path id="XMLID_54_" class="st0" d="M141.2,60.5v121.6l-73-120.7c-4.8-0.2-9.8-0.2-14.7-0.2c-0.3,0-0.6,0-0.8,0
		c-4.6,0-9.1,0-13.2,0v10.4c0.3,0,0.7,0,1,0c9.9-0.1,10.7,3.6,11,8.3v119.3c0,0.3,0,0.5,0,0.7v0c-0.2,4.7-3.3,6.9-12.2,6.8v10.4
		h28.9V96.1l73,120.7l0.3,0.4h16.3v-0.8l0.1-137.2c0.4-4.7,1.1-8.4,11-8.3c0.3,0,0.6,0,1,0V60.5H141.2L141.2,60.5z M141.2,60.5"/>
	<path id="XMLID_50_" class="st0" d="M88,270.5l261.4,9.2v-9.2H88z M1056.1,270.5v9.2l265.9-9.2H1056.1z M1056.1,270.5"/>
	<g id="XMLID_158_">
		<path id="XMLID_46_" class="st0" d="M438.2,252.6l-0.6,2.3l-8.4,31.7c-0.8,2.8-1.6,2.8-5,2.8v3.2h8.3l3.7-14h11.4l3.7,14h8.3v-3.2
			c-3.4,0-4.1,0-5-2.8l-8.4-31.7l-0.6-2.3H438.2z M441.9,257.1l0.4,1.4v-0.2l4.5,16.9H437l4.5-16.9v0.2L441.9,257.1z M441.9,257.1"
			/>
		<path id="XMLID_41_" class="st0" d="M379.5,252.5v3.2c3.7-0.1,4,1.1,4.1,2.7v28.1c0.1,1.9-0.8,2.8-4.2,2.7v3.2h27
			c10-3,7-23.3-1.5-22.9c8.2-5.8,5.4-17-2-17.1H379.5z M401.6,268.8h-12.4v-13.1H401C406.9,256.6,405.2,266.8,401.6,268.8
			L401.6,268.8z M389.3,272h12.1c7.7-0.2,8.3,17,0.8,17.3h-13V272z M389.3,272"/>
		<path id="XMLID_37_" class="st0" d="M473.3,252.6v3.2c3.7-0.1,4,1.1,4.1,2.7v28.1c0.1,1.9-0.8,2.8-4.2,2.7v3.2h9.8v-3.8l0,0v-14.5
			h9.6c3-0.2,4.8,0,8.1-4c5.7-9.6,3-17.5-4-17.6H473.3z M483.1,255.8h11.8c5.4,0.8,4.3,11.3,1.4,14.5c-0.6,0.7-1.1,0.7-2.1,0.7
			h-11.1V255.8z M483.1,255.8"/>
		<path id="XMLID_34_" class="st0" d="M519.5,253.2h-3.9v0h-0.3v7.3h3.6c0.2-3,0.5-3.8,3-4.1h8.6l0,2.7v28.1
			c0.1,1.9-0.8,2.8-4.2,2.8v3.2h14v-3.2c-3.4,0-4.3-0.8-4.2-2.8V259l0-2.7h8.7c2.5,0.3,2.8,1.1,3,4.1h3.6v-7.3H551v0h-3.9H519.5z
			 M519.5,253.2"/>
		<path id="XMLID_31_" class="st0" d="M567.4,253.6v3.2c3.7-0.1,4,1.1,4.1,2.7v28.1c0.1,1.9-0.8,2.8-4.2,2.8v3.2h14v-3.2
			c-3.4,0-4.3-0.8-4.2-2.8v-28.1c0.1-1.6,0.4-2.9,4.1-2.7v-3.2H567.4z M567.4,253.6"/>
		<path id="XMLID_28_" class="st0" d="M621.5,253.7L621.5,253.7C621.5,253.7,621.5,253.7,621.5,253.7L621.5,253.7l0,0.5
			c-0.5-0.2-12.1-2-16.2,1.6c-3.3,2.6-5,8.9-1.2,13.2c4.1,4.6,10,4.9,14.1,6.4c6.2,2.7,6.1,12.4,0.8,15.4c-2.9,1.6-6.8,1.9-10.9-0.1
			c-3.3-1.6-2.7-4.6-2.7-7.6h-3.6v10.6h3.6V293c6.4,1.2,11.1,1.2,15,0.6c12-2.1,12.1-19.5,0.9-21.5c-4.2-0.5-9.9-2.1-12.1-5
			c-1.2-1.7-1.1-3.6-0.9-5.4c0.7-5.3,4.2-6.7,8.7-5.8c3.1,1.1,4.4,2.3,4.4,4.9h3.6v-7.1H621.5z M621.5,253.7"/>
		<path id="XMLID_25_" class="st0" d="M649.8,253.2h-3.9v0h-0.3v7.3h3.6c0.2-3,0.5-3.8,3-4.1h8.6l0,2.7v28.1
			c0.1,1.9-0.8,2.8-4.2,2.8v3.2h14v-3.2c-3.4,0-4.3-0.8-4.2-2.8V259l0-2.7h8.6c2.5,0.3,2.8,1.1,3,4.1h3.6v-7.3h-0.3v0h-3.9H649.8z
			 M649.8,253.2"/>
		<path id="XMLID_22_" class="st0" d="M734.8,254.7c-0.1,0-0.1,0.1-0.2,0.1c0,0-0.1,0.1-0.1,0.1c0,0,0,0,0,0
			c-0.1,0.1-0.2,0.1-0.3,0.2c0,0,0,0,0,0c0,0-0.1,0.1-0.1,0.1c-0.1,0-0.1,0.1-0.2,0.1c0,0,0,0,0,0c-0.2,0.1-0.3,0.3-0.5,0.4
			c0,0,0,0,0,0c0,0,0,0,0,0c-0.1,0.1-0.2,0.2-0.3,0.2c-0.1,0.1-0.2,0.2-0.3,0.3c-0.1,0.1-0.2,0.2-0.3,0.3c-0.1,0.1-0.2,0.2-0.2,0.2
			c0,0,0,0,0,0c0,0-0.1,0.1-0.1,0.1c-0.1,0.1-0.1,0.1-0.2,0.2c0,0,0,0-0.1,0.1c0,0.1-0.1,0.1-0.1,0.2c0,0-0.1,0.1-0.1,0.1
			c-0.1,0.1-0.1,0.1-0.2,0.2c0,0-0.1,0.1-0.1,0.1c-0.1,0.1-0.1,0.2-0.2,0.3c0,0,0,0.1-0.1,0.1c-0.1,0.1-0.1,0.2-0.2,0.3c0,0,0,0,0,0
			c-0.1,0.1-0.2,0.2-0.2,0.3c-0.1,0.1-0.1,0.2-0.2,0.3c0,0.1-0.1,0.1-0.1,0.2c0,0-0.1,0.1-0.1,0.1c-0.2,0.3-0.4,0.6-0.5,0.9
			c0,0,0,0,0,0c-0.1,0.1-0.1,0.2-0.2,0.3c-0.1,0.2-0.2,0.5-0.3,0.7c-1.2,2.7-1.9,6.1-2,10.1c0,0.4,0,0.7,0,1.1c0,0.3,0,0.5,0,0.8v0
			c0,0.3,0,0.5,0,0.8c0,0.4,0,0.8,0,1.1c0,4.1,0.8,7.4,2,10.1c0.1,0.2,0.2,0.5,0.3,0.7c0.1,0.1,0.1,0.2,0.2,0.3c0,0,0,0,0,0
			c0.2,0.3,0.4,0.7,0.5,1c0.1,0.1,0.1,0.2,0.2,0.3c0,0,0,0,0,0c0,0.1,0.1,0.2,0.1,0.2c0.1,0.1,0.2,0.2,0.2,0.3c0,0,0,0,0,0
			c0,0,0,0,0,0c0,0,0,0,0,0.1c0.1,0.1,0.1,0.2,0.2,0.2c0,0,0,0.1,0.1,0.1c0.1,0.1,0.1,0.2,0.2,0.3c0,0,0.1,0.1,0.1,0.1
			c0,0,0,0,0,0.1c0,0.1,0.1,0.1,0.1,0.2c0.1,0.1,0.2,0.2,0.2,0.3c0,0,0,0,0.1,0.1c0.1,0.1,0.1,0.1,0.2,0.2c0,0,0.1,0.1,0.1,0.1l0,0
			c0,0,0,0,0,0c0.1,0.1,0.2,0.2,0.2,0.2c0.1,0.1,0.2,0.2,0.3,0.3c0.1,0.1,0.2,0.2,0.3,0.3c0.1,0.1,0.2,0.2,0.3,0.2c0,0,0,0,0,0
			c0,0,0,0,0,0c0.2,0.1,0.3,0.3,0.5,0.4c0,0,0,0,0,0c0.1,0,0.1,0.1,0.2,0.1c0,0,0.1,0.1,0.2,0.1c0,0,0,0,0,0
			c0.1,0.1,0.2,0.1,0.3,0.2c0,0,0,0,0,0c0,0,0.1,0.1,0.1,0.1c0.1,0,0.1,0.1,0.2,0.1c3.3,1.7,9.6,2.2,13.1,1.5c0,0,0,0,0,0
			c0.8-0.1,1.6-0.2,2.3-0.4l0,0.5c0,0,0,0,0,0v0h3.6v-7.1h-3.6c0,1.8-0.7,2.9-2.1,3.8c-2.8,0.9-8,0.7-10.9-0.5l0,0c0,0,0,0,0,0
			c0,0-0.1-0.1-0.1-0.1c0,0,0,0-0.1-0.1c0-0.1-0.1-0.1-0.1-0.2c0,0,0,0,0,0c0,0,0,0-0.1-0.1c0,0-0.1-0.1-0.1-0.2
			c0,0-0.1-0.1-0.1-0.1c0,0,0-0.1-0.1-0.1c-0.1-0.1-0.1-0.2-0.2-0.3c-0.1-0.1-0.1-0.2-0.2-0.3c0,0,0,0,0-0.1
			c-0.1-0.1-0.1-0.2-0.2-0.4c-0.1-0.1-0.1-0.3-0.2-0.4c-0.1-0.3-0.2-0.6-0.3-0.9c-0.1-0.5-0.3-1-0.4-1.5c0,0,0,0,0,0c0,0,0,0,0,0
			c-0.1-0.5-0.2-1.1-0.4-1.6c0,0,0,0,0,0c0,0,0-0.1,0-0.1c0-0.1-0.1-0.3-0.1-0.4c0,0,0-0.1,0-0.1c0-0.2-0.1-0.4-0.1-0.6
			c0-0.2-0.1-0.4-0.1-0.7c0-0.2-0.1-0.4-0.1-0.7c-0.1-0.4-0.1-0.9-0.2-1.4c-0.1-0.5-0.1-0.9-0.1-1.4c0-0.5-0.1-1-0.1-1.4
			c0-0.2,0-0.5,0-0.7c-0.1-0.9-0.1-1.9-0.1-2.8c0-0.9,0.1-1.9,0.1-2.8c0-0.2,0-0.5,0-0.7c0-0.5,0.1-1,0.1-1.4c0-0.5,0.1-0.9,0.1-1.4
			c0.1-0.5,0.1-0.9,0.2-1.4c0-0.2,0.1-0.4,0.1-0.7c0-0.2,0.1-0.4,0.1-0.6c0-0.2,0.1-0.4,0.1-0.6c0,0,0-0.1,0-0.1
			c0-0.1,0-0.3,0.1-0.4c0,0,0-0.1,0-0.1c0,0,0,0,0,0c0.1-0.6,0.2-1.1,0.4-1.6c0,0,0,0,0,0c0,0,0,0,0,0c0.1-0.5,0.3-1,0.4-1.5
			c0.1-0.3,0.2-0.6,0.3-0.9c0.1-0.1,0.1-0.3,0.2-0.4c0.1-0.1,0.1-0.2,0.2-0.4c0,0,0-0.1,0-0.1c0.1-0.1,0.1-0.2,0.2-0.3
			c0.1-0.1,0.1-0.2,0.2-0.3c0,0,0-0.1,0.1-0.1c0,0,0.1-0.1,0.1-0.1c0-0.1,0.1-0.1,0.1-0.2c0,0,0,0,0.1-0.1c0,0,0,0,0,0
			c0-0.1,0.1-0.1,0.1-0.2c0,0,0,0,0.1-0.1c0,0,0.1-0.1,0.1-0.1c0,0,0,0,0,0c0,0,0,0,0,0c2.8-1.2,8-1.4,10.9-0.5
			c1.4,0.9,2.1,2,2.1,3.8h3.6V253h-3.6v0c0,0,0,0,0,0l0,0.5c-0.7-0.1-1.5-0.3-2.3-0.4c0,0,0,0,0,0
			C744.3,252.5,737.7,253,734.8,254.7L734.8,254.7z M734.8,254.7"/>
		<path id="XMLID_18_" class="st0" d="M783.7,252.5c-7.4,0.1-14.5,6.7-13.9,20.6c0,0,0,0.1,0,0.1c-0.6,14.5,7.2,21,15,20.5
			c7.8,0.5,15.7-6,15-20.5c0,0,0-0.1,0-0.1c0.6-14.6-7.2-21.1-15-20.5C784.5,252.6,784.1,252.5,783.7,252.5L783.7,252.5z
			 M784.8,255.3C784.8,255.3,784.8,255.3,784.8,255.3c1.8,0,3.6,0.4,5,1.1c0,0,0,0,0.1,0c0,0,0.1,0.1,0.1,0.1c0,0,0,0.1,0.1,0.1
			c0.1,0,0.1,0.1,0.1,0.2c0,0,0,0,0,0c0,0,0,0,0.1,0.1c0,0.1,0.1,0.1,0.1,0.2c0,0,0.1,0.1,0.1,0.1c0,0,0,0.1,0.1,0.1
			c0,0.1,0.1,0.1,0.1,0.2c0,0,0,0.1,0.1,0.1c0.1,0.1,0.1,0.2,0.2,0.3c0.1,0.1,0.1,0.2,0.2,0.4c0.1,0.1,0.1,0.3,0.2,0.4
			c0.1,0.3,0.2,0.6,0.3,0.9c0.2,0.5,0.3,1,0.4,1.5c0,0,0,0,0,0c0,0,0,0,0,0c0.2,0.9,0.4,1.9,0.6,2.9c0.1,0.8,0.3,1.7,0.4,2.7
			c0.1,0.5,0.1,0.9,0.1,1.4c0,0.5,0.1,0.9,0.1,1.4c0.1,1.2,0.1,2.4,0.2,3.7c0,1.2-0.1,2.4-0.2,3.7c0,0.5-0.1,1-0.1,1.4
			c-0.4,4.5-1.2,8.5-2.4,10.6c-0.2,0.3-0.4,0.6-0.6,0.8c-0.1,0.1-0.2,0.2-0.3,0.3c-1.4,0.7-3.1,1.1-4.8,1.1h0
			c-1.7,0-3.5-0.4-4.9-1.1c-0.1-0.1-0.2-0.2-0.3-0.3c-0.2-0.2-0.4-0.5-0.6-0.8c-0.8-1.5-1.4-3.8-1.8-6.6c-0.2-1.3-0.4-2.6-0.5-4
			c0-0.5-0.1-1-0.1-1.4c0-0.2,0-0.5,0-0.7c-0.1-1-0.1-1.9-0.1-2.9c0-1,0.1-2,0.1-2.9c0-0.2,0-0.5,0-0.7c0-0.5,0.1-1,0.1-1.4
			c0-0.5,0.1-0.9,0.1-1.4c0.1-0.5,0.1-0.9,0.2-1.4c0-0.2,0.1-0.5,0.1-0.7c0-0.2,0.1-0.4,0.1-0.6c0-0.2,0.1-0.4,0.1-0.6
			c0,0,0-0.1,0-0.1c0-0.1,0.1-0.3,0.1-0.4c0-0.1,0-0.1,0-0.2c0,0,0,0,0,0c0.1-0.6,0.2-1.1,0.4-1.6c0,0,0,0,0,0c0,0,0,0,0,0
			c0.1-0.5,0.3-1,0.4-1.5c0.1-0.3,0.2-0.6,0.3-0.9c0.1-0.1,0.1-0.3,0.2-0.4c0.1-0.1,0.1-0.2,0.2-0.4c0,0,0,0,0-0.1
			c0-0.1,0.1-0.2,0.2-0.3c0.1-0.1,0.1-0.2,0.2-0.3c0,0,0-0.1,0.1-0.1c0,0,0.1-0.1,0.1-0.1c0-0.1,0.1-0.1,0.1-0.2c0,0,0,0,0.1-0.1
			c0,0,0,0,0,0c0-0.1,0.1-0.1,0.1-0.2c0,0,0-0.1,0.1-0.1c0,0,0.1-0.1,0.1-0.1c0,0,0,0,0,0c0,0,0,0,0,0
			C781.4,255.7,783.1,255.4,784.8,255.3L784.8,255.3z M784.8,255.3"/>
		<path id="XMLID_15_" class="st0" d="M816,253.9v3.2c3.7-0.1,4,1.1,4.1,2.7V288c0.1,1.9-0.8,2.8-4.2,2.8v3.2h31.9v-7.3h-3.6
			c-0.6,3.6-0.7,3.9-3.4,4.1h-15.1v-33.6l0-3.2L816,253.9z M816,253.9"/>
		<path id="XMLID_12_" class="st0" d="M864,253.9v3.2c3.7-0.1,4,1.1,4.1,2.7V288c0.1,1.9-0.8,2.8-4.2,2.8v3.2h31.9v-7.3h-3.6
			c-0.6,3.6-0.7,3.9-3.4,4.1h-15.1v-33.6l0-3.2L864,253.9z M864,253.9"/>
		<path id="XMLID_9_" class="st0" d="M907.4,253.3v3.2c3.7-0.1,4,1.1,4.1,2.7v28.1c0.1,1.9-0.8,2.8-4.2,2.7v3.2h31.8v0h0V286h-3.6
			c-0.6,3.6-0.7,3.9-3.4,4.1h-15.1v-15.2h9.2c2,0,2.1,1.1,2.3,3.7h3.6V268h-3.6c-0.4,3.8-0.3,3.7-2.3,3.7h-9.2v-15.2h15.5
			c2.5,0.3,2.8,1.1,3,4.1h3.6v-7.3h-0.3H907.4z M907.4,253.3"/>
		<path id="XMLID_6_" class="st0" d="M972,253.2c-3.3,0-7.1,0.6-9.1,1.8c-0.1,0-0.1,0.1-0.2,0.1c-0.1,0-0.1,0.1-0.1,0.1c0,0,0,0,0,0
			c-0.1,0.1-0.2,0.1-0.3,0.2c0,0,0,0,0,0c-0.1,0-0.1,0.1-0.2,0.1c-0.1,0-0.1,0.1-0.2,0.1c0,0,0,0,0,0c-0.2,0.1-0.3,0.3-0.5,0.4
			c0,0,0,0,0,0c0,0,0,0,0,0c-0.1,0.1-0.2,0.2-0.3,0.2c-0.1,0.1-0.2,0.2-0.3,0.3c-0.1,0.1-0.2,0.2-0.3,0.3c-0.1,0.1-0.2,0.2-0.2,0.2
			c0,0,0,0,0,0c0,0-0.1,0.1-0.1,0.1c-0.1,0.1-0.1,0.1-0.2,0.2c0,0,0,0-0.1,0.1c0,0-0.1,0.1-0.1,0.1c0,0-0.1,0.1-0.1,0.1
			c-0.1,0.1-0.1,0.1-0.2,0.2c0,0-0.1,0.1-0.1,0.1c-0.1,0.1-0.1,0.2-0.2,0.3c0,0,0,0-0.1,0.1c-0.1,0.1-0.1,0.2-0.2,0.3c0,0,0,0,0,0
			c-0.1,0.1-0.2,0.2-0.2,0.3c-0.1,0.1-0.1,0.2-0.2,0.3c0,0-0.1,0.1-0.1,0.2c0,0,0,0.1-0.1,0.1c-0.2,0.3-0.4,0.6-0.5,0.9c0,0,0,0,0,0
			c-0.1,0.1-0.1,0.2-0.2,0.3c-0.1,0.2-0.2,0.5-0.3,0.7c-1.2,2.7-1.9,6.1-2,10.1c0,0.4,0,0.8,0,1.1c0,0.3,0,0.5,0,0.8v0
			c0,0.3,0,0.5,0,0.8c0,0.4,0,0.8,0,1.1c0,4.1,0.7,7.4,2,10.1c0.1,0.2,0.2,0.5,0.3,0.7c0.1,0.1,0.1,0.2,0.2,0.3c0,0,0,0,0,0
			c0.2,0.3,0.4,0.7,0.6,1c0.1,0.1,0.1,0.2,0.2,0.3c0,0,0,0,0,0c0.1,0.1,0.1,0.2,0.2,0.2c0.1,0.1,0.2,0.2,0.2,0.3c0,0,0,0,0,0l0,0
			c0,0,0,0,0,0.1c0.1,0.1,0.1,0.2,0.2,0.3c0,0,0,0,0.1,0.1c0.1,0.1,0.1,0.2,0.2,0.3c0,0,0.1,0.1,0.1,0.1c0,0,0,0,0,0.1
			c0,0,0.1,0.1,0.1,0.1c0.1,0.1,0.2,0.2,0.2,0.3c0,0,0,0,0.1,0.1c0.1,0.1,0.1,0.1,0.2,0.2c0,0,0.1,0.1,0.1,0.1l0,0c0,0,0,0,0,0
			c0.1,0.1,0.2,0.2,0.2,0.2c0.1,0.1,0.2,0.2,0.3,0.3c0.1,0.1,0.2,0.2,0.3,0.3c0.1,0.1,0.2,0.2,0.3,0.2c0,0,0,0,0,0c0,0,0,0,0,0
			c0.2,0.1,0.3,0.3,0.5,0.4c0,0,0,0,0,0c0.1,0,0.1,0.1,0.2,0.1c0.1,0,0.1,0.1,0.2,0.1c0,0,0,0,0,0c0.1,0.1,0.2,0.1,0.3,0.2
			c0,0,0,0,0,0c0.1,0,0.1,0.1,0.1,0.1c0.1,0,0.1,0.1,0.2,0.1c3.3,1.7,9.6,2.2,13.1,1.5c0,0,0,0,0,0c0.8-0.1,1.6-0.2,2.3-0.4l0,0.5
			c0,0,0,0,0,0v0h3.6v-12.5h0.8v-3.2h-8.1v3.2h3.7c0,2.1,0.3,8.4-2.1,9.2c-2.9,0.9-8,0.7-10.9-0.5l0,0c0,0,0,0,0,0
			c0,0-0.1-0.1-0.1-0.1c0,0,0,0-0.1-0.1c0-0.1-0.1-0.1-0.1-0.2v0c0,0,0,0-0.1-0.1c0-0.1-0.1-0.1-0.1-0.2c0,0-0.1-0.1-0.1-0.1
			c0,0,0-0.1-0.1-0.1c-0.1-0.1-0.1-0.2-0.2-0.3c-0.1-0.1-0.1-0.2-0.2-0.3c0,0,0,0,0-0.1c-0.1-0.1-0.1-0.2-0.2-0.4
			c-0.1-0.1-0.1-0.3-0.2-0.4c-0.1-0.3-0.2-0.6-0.3-0.9c-0.1-0.5-0.3-1-0.4-1.5c0,0,0,0,0,0c0,0,0,0,0,0c-0.1-0.5-0.2-1.1-0.4-1.6
			c0,0,0,0,0,0c0,0,0-0.1,0-0.1c0-0.1,0-0.3-0.1-0.4c0,0,0-0.1,0-0.1c0-0.2-0.1-0.4-0.1-0.6c0-0.2-0.1-0.4-0.1-0.6
			c0-0.2-0.1-0.4-0.1-0.7c-0.1-0.5-0.1-0.9-0.2-1.4c-0.1-0.5-0.1-0.9-0.1-1.4c0-0.5-0.1-0.9-0.1-1.4c0-0.2,0-0.5-0.1-0.7
			c-0.1-0.9-0.1-1.9-0.1-2.8c0-0.9,0.1-1.9,0.1-2.8c0-0.2,0-0.5,0.1-0.7c0-0.5,0.1-1,0.1-1.4c0-0.5,0.1-0.9,0.1-1.4
			c0-0.5,0.1-0.9,0.2-1.4c0-0.2,0.1-0.4,0.1-0.7c0-0.2,0.1-0.4,0.1-0.6c0-0.2,0.1-0.4,0.1-0.6c0,0,0-0.1,0-0.1c0-0.1,0-0.3,0.1-0.4
			c0-0.1,0-0.1,0-0.2c0,0,0,0,0,0c0.1-0.6,0.2-1.1,0.4-1.6c0,0,0,0,0,0c0,0,0,0,0,0c0.1-0.5,0.3-1,0.4-1.5c0.1-0.3,0.2-0.6,0.3-0.9
			c0.1-0.1,0.1-0.3,0.2-0.4c0.1-0.1,0.1-0.2,0.2-0.4c0,0,0,0,0-0.1c0.1-0.1,0.1-0.2,0.2-0.3c0.1-0.1,0.1-0.2,0.2-0.3
			c0,0,0-0.1,0.1-0.1c0,0,0.1-0.1,0.1-0.1c0-0.1,0.1-0.1,0.1-0.2c0,0,0-0.1,0.1-0.1v0c0.1-0.1,0.1-0.1,0.1-0.2c0,0,0,0,0.1-0.1
			c0,0,0.1-0.1,0.1-0.1c0,0,0,0,0,0c0,0,0,0,0,0c2.8-1.2,8-1.4,10.9-0.5c1.4,0.9,2.1,2,2.1,3.8h3.6v-7.1h-3.6v0c0,0,0,0,0,0l0,0.5
			c-0.7-0.1-1.5-0.3-2.3-0.4c0,0,0,0,0,0C974.9,253.3,973.5,253.2,972,253.2L972,253.2z M972,253.2"/>
		<path id="XMLID_3_" class="st0" d="M998.8,253v3.2c3.7-0.1,4,1.1,4.1,2.7V287c0.1,1.9-0.8,2.8-4.2,2.8v3.2h31.9v-7.3h-3.6
			c-0.6,3.6-0.7,3.9-3.4,4.1h-15.1v-15.2h9.2c2,0,2.1,1.1,2.3,3.7h3.6v-10.6h-3.6c-0.4,3.8-0.3,3.7-2.3,3.7h-9.2v-15.2h15.5
			c2.5,0.3,2.8,1.1,3,4.1h3.6V253h-0.3v0L998.8,253z M998.8,253"/>
	</g>
</g>
</svg>
