<svg xmlns="http://www.w3.org/2000/svg" xmlns:xlink="http://www.w3.org/1999/xlink" version="1.1" id="footer-map" x="0" y="0" viewBox="0 0 288.3 225.3" xml:space="preserve">
<style type="text/css"> .st0{opacity:0.69;fill:#1A2C4C;} .st4, .st1{fill:#5D5E61;} .st2{fill:none;stroke:#BABCBE;stroke-width:7;stroke-miterlimit:10;} .st3{fill:#FFFFFF;} </style>
<path class="st0" d="M169.3 71.3c4-1.3 8.2-2.3 12.3-3.4 3.2-0.8 6.4-1.6 9.7-2.4 0.8 1.4 0.1 3.3 0.7 4.8 0.3 0.9 1.1 1.7 1.3 2.6 0.1 0.9-0.2 1.7-0.7 2.5 -0.9 1.5-2.1 2.8-3.5 3.7 -0.5 0.3-1 0.6-1.1 1.2 -0.1 0.3 0 0.7 0.1 1 0.6 2.3 0.8 4.8 0.6 7.1 -0.2 2-0.6 4-0.7 6 -0.1 1.8 0 3.5 0.1 5.3 0.2 3.3 0.4 6.7 0.5 10 -1.8 0.3-3.5 0.9-5.1 1.7 -0.9 0.1-1.8 0.1-2.7 0.2 -0.2 0-0.4 0-0.6-0.1 -0.1-0.1-0.1-0.2-0.2-0.4 -0.3-1.1-0.2-2.2-0.4-3.3 -0.2-1.1-0.5-2.2-0.9-3.3 -0.6-1.8-1.2-3.7-1.8-5.5 -0.2-0.7-0.5-1.5-1.2-1.9 -0.3-0.2-0.6-0.2-0.9-0.4 -0.7-0.5-0.4-1.6-0.5-2.5 -0.1-1.2-0.9-2.2-1.4-3.3 -1.3-2.7-0.5-6-1-9 -0.3-1.9-1.2-3.6-1.8-5.4 -0.6-1.8-1.1-3.7-0.6-5.5"/>
<path id="path3049" class="st4" d="M91 186.3c0-1.2-0.2-2.5-0.5-2.8 -0.3-0.3-0.9-3.3-1.3-6.6 -0.4-3.4-1.1-7.3-1.3-8.8 -0.3-1.5-1.1-6.8-1.9-12l-1.4-9.3 1.7-1.3c1-0.7 2.7-2.2 4-3.3 1.2-1.1 2.4-2 2.6-2 0.2 0 0.3 1.1 0.3 2.4 0 1.9 0.2 2.4 0.9 2.4 0.8 0 4.5-0.5 13.2-1.9 1.2-0.2 3.6-0.6 5.3-1 1.8-0.4 5.2-1.1 7.7-1.6s5.6-1.1 6.9-1.4c1.3-0.3 6.6-1.4 11.7-2.4s10.7-2.2 12.5-2.7c3.1-0.8 3.2-0.8 4 0.3 0.4 0.6 1.1 1.1 1.6 1.1 0.5 0 1.4 1 2.1 2.3 1.8 3.3 2.7 4.1 4.3 4.1 1.8 0 2.3 0.7 1.3 1.6 -0.4 0.4-0.8 1.3-0.8 2.1s-0.3 1.8-0.7 2.2c-1.1 1.1-1.5 3.5-0.8 4.7 0.6 0.9 0.5 1.2-0.3 1.7 -0.8 0.6-0.9 1.1-0.6 2.9 0.3 1.9 0.6 2.2 1.6 2.2 0.7 0 1.4 0.4 1.5 1 0.2 0.5 1.5 1.9 3 3l2.7 2 -1.9 1.7c-1 0.9-1.9 2-1.9 2.3 0 1.2-3.2 3.8-4.7 3.8 -1 0-2 0.6-3 1.6 -1.1 1.1-2.2 1.7-4 1.9 -2.6 0.3-8.1 1.5-12.8 2.7 -4.1 1.1-11.7 2.4-17 2.9 -2.5 0.3-4.6 0.7-4.8 1 -0.2 0.3-2.2 0.8-4.5 1.1s-4.3 0.6-4.5 0.8c-0.2 0.1-2.2 0.5-4.3 0.8s-6 0.9-8.4 1.4C90.1 188.8 91 188.9 91 186.3L91 186.3zM173.1 186.2l0.4-2.4h-1.9c-2.6 0-6.2-1.7-8.3-3.9 -1.8-1.9-1.8-1.9-0.9-3.7 0.5-1 1.7-2.4 2.7-3.2 1-0.8 2.2-2.2 2.7-3.3 0.5-1 1.5-2.3 2.2-2.7 1.9-1.2 1.6-2-1.3-4.2 -1.4-1.1-2.9-2.6-3.2-3.2 -0.3-0.7-1-1.3-1.6-1.3 -1.3 0-2-2.7-0.8-3.3 0.9-0.5 1-2.8 0.2-3.3 -0.8-0.5-0.7-1.1 0.3-2.1 0.5-0.5 1-1.8 1.2-3 0.5-3.1 1.5-3.5 4.3-2.1 1.3 0.6 2.7 1.1 3.2 1.1 0.5 0 2 0.4 3.4 0.9l2.5 0.9 -0.3 2.4c-0.2 1.3-0.3 2.7-0.3 3.1 0 0.4-0.4 0.7-0.8 0.7 -0.6 0-0.8 0.6-0.8 2.4v2.4l1.8-0.2c1-0.1 2 0 2.2 0.2 0.7 0.7 1.1 12.1 0.6 14.1 -0.3 1-1.6 3.7-2.8 6.1 -1.3 2.3-2.3 4.7-2.3 5.4 0 1.1-1.8 4.6-2.4 4.6C172.9 188.6 172.9 187.5 173.1 186.2L173.1 186.2zM177 155.7c0-0.4 0.4-1.1 0.8-1.6 0.5-0.5 1-2.4 1.1-4.3l0.3-3.4 -3.4-1c-5.5-1.6-9.4-3-10.1-3.8 -0.3-0.4-1.3-0.7-2.1-0.7 -1.2 0-1.8-0.5-3.1-2.5 -0.9-1.4-1.6-2.8-1.6-3.2 0-0.4-0.6-0.7-1.3-0.7 -0.8 0-1.3-0.3-1.3-0.8 0-1.3-2.3-1.5-6.7-0.4 -2.3 0.6-6.8 1.6-10.1 2.2 -3.2 0.6-8 1.6-10.6 2.1s-6.8 1.4-9.3 1.9 -5.5 1.1-6.6 1.4c-1.2 0.3-3.4 0.7-5 1 -1.6 0.2-4.4 0.7-6.1 0.9 -1.8 0.3-4.2 0.7-5.4 0.9l-2.3 0.3v-2.3c0-2.1 0.3-2.6 3.5-5.8 1.9-1.9 3.5-3.8 3.5-4.1 0-0.3 0.7-1.3 1.7-2.2 1.5-1.4 1.6-1.7 1-3.1 -0.4-0.9-1.1-1.7-1.6-1.9 -0.5-0.2-1.3-1.4-1.8-2.7l-0.8-2.4 2.7-1.4c4.2-2.1 15.3-3.7 16.1-2.4 0.5 0.8 1.9 0.6 4.3-0.5 1.2-0.6 3-1 4.2-1 1.8 0 2.4-0.4 4.6-2.8 1.4-1.5 2.6-3 2.6-3.2 0-0.2 0.5-0.4 1-0.4 1.9 0 2.4-1.4 1.5-3.8 -0.6-1.5-0.7-2.5-0.3-3.1 0.9-1.6 0.6-2.4-1.2-2.9 -2.8-0.8-2.6-2.5 0.8-6 1.6-1.6 3.6-4.2 4.4-5.8 1.8-3.3 6.6-9.1 8.3-10 0.7-0.4 3.2-1 5.5-1.3 2.3-0.4 6.2-1.2 8.5-1.9 5.3-1.5 5.5-1.5 5.6-0.1 0 1.9 1.3 6 2.1 7 0.5 0.6 0.8 2.4 0.8 5.3 0.1 3.1 0.4 5 1.2 6.7 0.7 1.5 1 3 0.8 4.1 -0.2 1.6-0.1 1.8 1.4 2 1.6 0.3 1.7 0.5 3 6 1.1 4.8 1.4 7 1.4 13.5 0 4.3 0.2 8.4 0.5 9.1 0.7 1.9 2.1 11 2.1 13.7 0 1.3-0.3 2.6-0.6 2.9 -0.5 0.5-0.5 1 0 1.9 0.3 0.7 0.5 2.2 0.3 3.2 -0.2 1-0.1 1.9 0.2 1.9 0.3 0 1.4-1 2.6-2.1 1.7-1.7 2.3-2.1 3.5-1.8 1.9 0.4 10-3.3 11.4-5.3 1-1.4 1.1-1.4 2.8-0.7l1.7 0.7 -1.5 1.3c-2.5 2.3-9.9 7.7-11.8 8.7 -2.1 1.1-8.5 2.9-10.1 2.9 -0.6 0-1.4 0.5-1.9 1.2C177.4 156 177 156.1 177 155.7L177 155.7zM181.6 145c-0.2-0.3-0.1-0.9 0.3-1.3 0.8-0.9 0.5-8-0.5-13.2 -0.4-2-0.6-3.7-0.4-3.9 0.5-0.5 15.3-3.9 17-3.9 0.8 0 1.5-0.3 1.5-0.6 0-0.3 0.7-0.5 1.6-0.5 1.4 0 1.6 0.2 2.4 2.8 0.5 1.5 1 4.3 1.2 6.1 0.3 3.3 0.3 3.3-1.2 3.9 -4.4 1.8-6.9 2.6-7.7 2.6 -0.5 0-1.6 0.3-2.4 0.6 -0.8 0.3-1.7 0.6-1.9 0.5 -0.2 0-0.9 0.6-1.6 1.4C187.8 141.8 182 145.7 181.6 145L181.6 145zM205.7 131.3c0-1.7-0.5-4.1-1.9-8.9 -0.3-1 0-1.2 1.9-1.7 2.5-0.6 3.3-0.1 4 2.4 0.2 0.6 0.7 1.3 1.2 1.5 0.5 0.2 1.3 1 1.9 2 1 1.6 1 1.7 0 2.4 -0.5 0.4-1.1 0.6-1.4 0.4 -0.2-0.1-0.8 0.4-1.3 1.1 -0.8 1.2-3.3 2.9-4.2 2.9C205.9 133.3 205.7 132.4 205.7 131.3L205.7 131.3zM214.2 126.3c-0.3-0.7-1.1-1.6-1.8-2.1 -0.6-0.5-1.6-1.7-2.2-2.8 -0.6-1-1.3-2-1.7-2.2 -0.7-0.3-5.7 0.7-11 2.1 -1.5 0.4-4.6 1.1-6.9 1.6s-5.4 1.2-6.8 1.6c-4.3 1.2-4.1 1.5-4.1-5.6v-6.4h1.4c0.8 0 2.2-0.2 3.1-0.5 0.9-0.3 4.6-1.1 8.3-1.8 3.7-0.7 8-1.7 9.6-2.1 1.6-0.5 3.5-0.8 4.2-0.8 0.9 0 1.2-0.2 1-0.8 -0.3-0.7 3.1-4.6 3.9-4.5 0.2 0 0.8 0.8 1.5 1.8l1.2 1.8 -1.1 2.7c-0.9 2.2-1 2.9-0.5 4.1 0.5 1.1 0.9 1.3 2.1 1 1-0.2 1.8-0.1 2.4 0.5 1.2 1.2 4 5.4 4 6 0 0.3 0.4 0.7 0.8 0.8 1.8 0.7 3.9 0.3 5.5-1.1 1.4-1.2 1.8-1.3 2.2-0.7 0.7 1.2 0.7 1.2-2.3 2.3 -1.5 0.5-3.6 1.7-4.5 2.6l-1.7 1.6 -0.4-1.4c-0.4-1.7-0.5-1.7-2.5-0.3 -1.1 0.7-1.5 1.5-1.3 2.1 0.1 0.5-0.1 1.1-0.5 1.3C214.9 127.6 214.9 127.6 214.2 126.3L214.2 126.3zM189.7 109.1c-0.2-0.2-0.2-1.9 0-3.7 0.2-2.6 0.2-3.4-0.4-3.4 -0.5 0-0.6-1.2-0.2-5.7 0.3-3.1 0.5-8.1 0.5-11l0-5.3 2.3-2.1c2-1.8 2.3-2.4 2.3-4.3 0-1.4-0.3-2.5-0.8-2.9 -0.6-0.5-0.8-1.7-0.7-4.4 0.1-5.4 0.5-6.5 2.3-6.4 1.5 0 1.6 0.3 2.8 4.3 0.7 2.3 2.6 8.3 4.2 13.2s3.3 10.7 3.8 12.8c0.8 3.3 1.1 3.8 2.6 4.5 1.1 0.5 1.7 1.2 1.7 2 0 0.7 0.3 1.2 0.8 1.2 0.4 0 0.9 0.2 1.1 0.5 0.5 0.8-0.2 2.7-1 2.7 -0.7 0-4.2 3.1-4.9 4.4 -0.3 0.5-2.9 1.5-7.2 2.5C192 109.4 190.3 109.7 189.7 109.1L189.7 109.1zM211.4 96.9c-0.2-0.2-0.4-0.8-0.4-1.3 0-0.6-0.7-1.3-1.9-1.7 -1.3-0.5-1.9-1.1-1.9-1.9 0-0.6-2.1-7.9-4.8-16.1 -2.6-8.3-4.9-15.7-5.1-16.5 -0.3-1.4-0.3-1.5 0.7-0.9 0.6 0.3 1.2 0.6 1.3 0.6 0.1 0 0.4-1.6 0.6-3.5 0.3-3.2 1-5.3 1.9-6 0.6-0.5 2.2-4.3 2.2-5.1 0-0.4-0.4-1.2-0.8-1.6 -1.1-1.1-1.1-6.2 0-7.1 0.6-0.5 0.7-1.4 0.5-4.2 -0.3-3.3-0.1-3.9 2.6-11 1.6-4.1 3.2-7.5 3.6-7.6 0.4-0.1 1 0.6 1.3 1.4 0.7 1.9 3.2 2.8 4.1 1.5 0.3-0.4 1.7-1.7 3.1-2.8 2.7-2.1 2.8-2.1 7.3-0.2l2.4 1 3.9 13 3.9 13 2.7 0.2 2.7 0.2 0.5 2.8c0.5 2.9 2.4 5.3 3.4 4.7 0.3-0.2 0.5-0.6 0.3-0.9 -0.2-0.3 0.2-0.5 0.7-0.5 1 0 4.1 3.3 4.4 4.8 0.2 1.1-1.5 5.3-2.2 5.3 -0.3 0-2.4 1.7-4.6 3.8 -3.6 3.3-4.2 3.7-4.7 2.9 -0.8-1.1-2.3-1.1-2.7-0.1 -0.2 0.4-0.7 0.8-1.2 0.8 -0.9 0-2.4 2.4-1.9 3.2 0.1 0.2-0.5 0.5-1.3 0.7 -1.3 0.2-1.7 0-1.9-1 -0.2-0.7-0.6-1.2-1-1.2 -0.9 0-2 1.4-1.5 1.8 0.7 0.4 0.3 7.2-0.5 8.1 -0.3 0.4-1.2 0.7-1.9 0.7 -1 0-1.3 0.3-1.3 1.3 0 1-0.6 1.7-2 2.6 -2.6 1.6-3.8 2-4.1 1.4 -0.6-0.9-1.2-0.5-2.3 1.2 -0.7 1.1-1 2.2-0.8 2.9 0.2 0.6 0.1 1.5-0.2 1.8s-0.9 2.8-1.5 5.3C212.5 97 212.2 97.7 211.4 96.9L211.4 96.9z"/>
<path class="st2" d="M284.8 112.7c0 60.3-48.9 109.2-109.1 109.2S65.4 172.9 65.4 112.7 115.3 3.5 175.6 3.5 284.8 52.4 284.8 112.7z"/>
<polygon class="st3" points="184.8 107.1 180 105.7 176.1 108.8 176 103.8 171.8 101.1 176.5 99.4 177.8 94.6 180.9 98.6 185.9 98.3 183 102.5 "/>
<path class="st1" d="M6.5 50.1H0.8V41h1.8v7.5h4V50.1z"/>
<path class="st1" d="M7.3 45.5c0-1.5 0.3-2.7 1-3.5 0.7-0.8 1.6-1.2 2.9-1.2 0.6 0 1.2 0.1 1.7 0.3 0.5 0.2 0.9 0.5 1.2 1 0.3 0.4 0.6 0.9 0.7 1.5 0.2 0.6 0.2 1.2 0.2 1.9 0 1.5-0.3 2.7-1 3.5 -0.7 0.8-1.6 1.2-2.9 1.2 -0.7 0-1.2-0.1-1.7-0.3 -0.5-0.2-0.9-0.5-1.2-1S7.7 48 7.5 47.5C7.3 46.9 7.3 46.2 7.3 45.5zM9.1 45.5c0 0.5 0 0.9 0.1 1.3 0.1 0.4 0.2 0.7 0.4 1 0.2 0.3 0.4 0.5 0.6 0.6 0.3 0.2 0.6 0.2 0.9 0.2 0.6 0 1.1-0.2 1.5-0.7 0.3-0.5 0.5-1.3 0.5-2.4 0-0.4 0-0.9-0.1-1.2 -0.1-0.4-0.2-0.7-0.3-1 -0.2-0.3-0.4-0.5-0.6-0.7 -0.3-0.2-0.6-0.2-0.9-0.2 -0.6 0-1.1 0.3-1.5 0.8C9.3 43.7 9.1 44.4 9.1 45.5z"/>
<path class="st1" d="M23.7 49.7c-0.3 0.2-0.6 0.3-1.1 0.4 -0.4 0.1-0.9 0.1-1.3 0.1 -0.5 0-1.1-0.1-1.6-0.3 -0.5-0.2-0.9-0.4-1.3-0.8s-0.7-0.9-0.9-1.5c-0.2-0.6-0.3-1.3-0.3-2.2 0-0.9 0.1-1.6 0.4-2.2 0.2-0.6 0.6-1.1 1-1.5 0.4-0.4 0.8-0.6 1.3-0.8 0.5-0.2 1-0.2 1.5-0.2 0.5 0 1 0 1.3 0.1 0.4 0.1 0.7 0.2 0.9 0.2l-0.4 1.5c-0.2-0.1-0.4-0.2-0.7-0.2s-0.6-0.1-1-0.1c-0.7 0-1.3 0.3-1.7 0.8s-0.7 1.3-0.7 2.4c0 0.5 0.1 0.9 0.2 1.3s0.3 0.7 0.5 1c0.2 0.3 0.5 0.5 0.8 0.6s0.7 0.2 1.1 0.2c0.4 0 0.7 0 1-0.1s0.5-0.2 0.7-0.3L23.7 49.7z"/>
<path class="st1" d="M30 48.1h-2.8l-0.7 2h-1.8l3.3-9.2h1.3l3.3 9.2h-1.9L30 48.1zM27.7 46.6h2l-0.7-2 -0.3-1.4h-0.1l-0.3 1.4L27.7 46.6z"/>
<path class="st1" d="M40.2 42.6h-2.7v7.5h-1.8v-7.5h-2.7V41h7.1V42.6z"/>
<path class="st1" d="M42.4 41h5.4v1.6h-3.6v2.1h3.3v1.6h-3.3v2.2h3.7v1.6h-5.5V41z"/>
<path class="st1" d="M50.5 41c0.2 0 0.4 0 0.6-0.1 0.2 0 0.5 0 0.7 0 0.2 0 0.5 0 0.7 0 0.2 0 0.4 0 0.6 0 0.8 0 1.5 0.1 2.1 0.3 0.6 0.2 1 0.5 1.4 0.9 0.4 0.4 0.6 0.9 0.8 1.5s0.2 1.2 0.2 1.9c0 0.6-0.1 1.2-0.2 1.8 -0.2 0.6-0.4 1.1-0.8 1.5 -0.4 0.4-0.8 0.8-1.4 1.1 -0.6 0.3-1.3 0.4-2.2 0.4 -0.1 0-0.3 0-0.6 0s-0.5 0-0.7 0c-0.2 0-0.5 0-0.7 0 -0.2 0-0.4 0-0.5 0V41zM53.3 42.4c-0.2 0-0.4 0-0.6 0 -0.2 0-0.3 0-0.4 0v6.1c0 0 0.1 0 0.2 0s0.2 0 0.3 0 0.2 0 0.3 0c0.1 0 0.2 0 0.2 0 0.5 0 0.9-0.1 1.3-0.3 0.3-0.2 0.6-0.4 0.8-0.7 0.2-0.3 0.3-0.6 0.4-1 0.1-0.4 0.1-0.8 0.1-1.2 0-0.4 0-0.7-0.1-1.1 -0.1-0.4-0.2-0.7-0.4-1 -0.2-0.3-0.4-0.5-0.8-0.7S53.8 42.4 53.3 42.4z"/>
<path class="st1" d="M64.8 41h1.8v9.1h-1.8V41z"/>
<path class="st1" d="M71.9 45.3l-0.7-1.4h-0.1l0.2 1.4v4.7h-1.7v-9.2h1.3l3.4 4.8 0.7 1.4h0.1l-0.2-1.4V41h1.7v9.2h-1.3L71.9 45.3z"/>
<path class="st1" d="M90 42.6h-2.7v7.5h-1.8v-7.5h-2.7V41H90V42.6z"/>
<path class="st1" d="M97.4 46.3H94v3.8h-1.8V41H94v3.7h3.3V41h1.8v9.1h-1.8V46.3z"/>
<path class="st1" d="M102 41h5.4v1.6h-3.6v2.1h3.3v1.6h-3.3v2.2h3.7v1.6H102V41z"/>
<path class="st1" d="M119.8 46.3h-3.3v3.8h-1.8V41h1.8v3.7h3.3V41h1.8v9.1h-1.8V46.3z"/>
<path class="st1" d="M124.5 41h5.4v1.6h-3.6v2.1h3.3v1.6h-3.3v2.2h3.7v1.6h-5.5V41z"/>
<path class="st1" d="M137 48.1h-2.8l-0.7 2h-1.8l3.3-9.2h1.3l3.3 9.2h-1.9L137 48.1zM134.7 46.6h2l-0.7-2 -0.3-1.4h-0.1l-0.3 1.4L134.7 46.6z"/>
<path class="st1" d="M141.7 41.1c0.2 0 0.4-0.1 0.6-0.1s0.5-0.1 0.7-0.1c0.2 0 0.5 0 0.7 0 0.2 0 0.4 0 0.6 0 0.4 0 0.8 0 1.3 0.1 0.4 0.1 0.8 0.2 1.1 0.4 0.3 0.2 0.6 0.5 0.8 0.8 0.2 0.3 0.3 0.8 0.3 1.3 0 0.7-0.2 1.4-0.5 1.8 -0.3 0.5-0.8 0.8-1.4 1l0.6 0.4 2.1 3.5h-2.1l-2.1-3.6 -0.9-0.2v3.7h-1.8V41.1zM144.4 42.4c-0.2 0-0.4 0-0.5 0 -0.2 0-0.3 0-0.4 0.1v2.6h0.8c0.5 0 0.9-0.1 1.2-0.3 0.3-0.2 0.4-0.6 0.4-1.1 0-0.4-0.1-0.7-0.4-0.9C145.3 42.5 144.9 42.4 144.4 42.4z"/>
<path class="st1" d="M156.7 42.6H154v7.5h-1.8v-7.5h-2.7V41h7.1V42.6z"/>
<path class="st1" d="M12.5 61.1c0-1.5 0.3-2.7 1-3.5 0.7-0.8 1.6-1.2 2.9-1.2 0.6 0 1.2 0.1 1.7 0.3 0.5 0.2 0.9 0.5 1.2 1 0.3 0.4 0.6 0.9 0.7 1.5 0.2 0.6 0.2 1.2 0.2 1.9 0 1.5-0.3 2.7-1 3.5 -0.7 0.8-1.6 1.2-2.9 1.2 -0.7 0-1.2-0.1-1.7-0.3 -0.5-0.2-0.9-0.5-1.2-1s-0.6-0.9-0.7-1.5C12.6 62.5 12.5 61.8 12.5 61.1zM14.4 61.1c0 0.5 0 0.9 0.1 1.3 0.1 0.4 0.2 0.7 0.4 1 0.2 0.3 0.4 0.5 0.6 0.6 0.3 0.2 0.6 0.2 0.9 0.2 0.6 0 1.1-0.2 1.5-0.7 0.3-0.5 0.5-1.3 0.5-2.4 0-0.4 0-0.9-0.1-1.2 -0.1-0.4-0.2-0.7-0.3-1 -0.2-0.3-0.4-0.5-0.6-0.7C17 58.1 16.7 58 16.4 58c-0.6 0-1.1 0.3-1.5 0.8C14.6 59.3 14.4 60 14.4 61.1z"/>
<path class="st1" d="M22.8 56.6h5.4v1.6h-3.6v2.2h3.3V62h-3.3v3.7h-1.8V56.6z"/>
<path class="st1" d="M41.3 58.2h-2.7v7.5h-1.8v-7.5h-2.7v-1.6h7.1V58.2z"/>
<path class="st1" d="M48.6 61.9h-3.3v3.8h-1.8v-9.1h1.8v3.7h3.3v-3.7h1.8v9.1h-1.8V61.9z"/>
<path class="st1" d="M53.3 56.6h5.4v1.6h-3.6v2.1h3.3v1.6h-3.3v2.2h3.7v1.6h-5.5V56.6z"/>
<path class="st1" d="M68.2 60.9l-0.7-1.4h-0.1l0.2 1.4v4.7H66v-9.2h1.3l3.4 4.8 0.7 1.4h0.1l-0.2-1.4v-4.8h1.7v9.2h-1.3L68.2 60.9z"/>
<path class="st1" d="M75.5 61.1c0-1.5 0.3-2.7 1-3.5 0.7-0.8 1.6-1.2 2.9-1.2 0.6 0 1.2 0.1 1.7 0.3 0.5 0.2 0.9 0.5 1.2 1 0.3 0.4 0.6 0.9 0.7 1.5 0.2 0.6 0.2 1.2 0.2 1.9 0 1.5-0.3 2.7-1 3.5 -0.7 0.8-1.6 1.2-2.9 1.2 -0.7 0-1.2-0.1-1.7-0.3 -0.5-0.2-0.9-0.5-1.2-1s-0.6-0.9-0.7-1.5C75.6 62.5 75.5 61.8 75.5 61.1zM77.4 61.1c0 0.5 0 0.9 0.1 1.3 0.1 0.4 0.2 0.7 0.4 1 0.2 0.3 0.4 0.5 0.6 0.6 0.3 0.2 0.6 0.2 0.9 0.2 0.6 0 1.1-0.2 1.5-0.7 0.3-0.5 0.5-1.3 0.5-2.4 0-0.4 0-0.9-0.1-1.2 -0.1-0.4-0.2-0.7-0.3-1 -0.2-0.3-0.4-0.5-0.6-0.7C80 58.1 79.7 58 79.4 58c-0.6 0-1.1 0.3-1.5 0.8C77.6 59.3 77.4 60 77.4 61.1z"/>
<path class="st1" d="M85.8 56.7c0.2 0 0.4-0.1 0.6-0.1s0.5-0.1 0.7-0.1c0.2 0 0.5 0 0.7 0 0.2 0 0.4 0 0.6 0 0.4 0 0.8 0 1.3 0.1 0.4 0.1 0.8 0.2 1.1 0.4 0.3 0.2 0.6 0.5 0.8 0.8s0.3 0.8 0.3 1.3c0 0.7-0.2 1.4-0.5 1.8 -0.3 0.5-0.8 0.8-1.4 1l0.6 0.4 2.1 3.5h-2.1l-2.1-3.6L87.6 62v3.7h-1.8V56.7zM88.5 58c-0.2 0-0.4 0-0.5 0 -0.2 0-0.3 0-0.4 0.1v2.6h0.8c0.5 0 0.9-0.1 1.2-0.3 0.3-0.2 0.4-0.6 0.4-1.1 0-0.4-0.1-0.7-0.4-0.9C89.4 58.1 89 58 88.5 58z"/>
<path class="st1" d="M100.8 58.2h-2.7v7.5h-1.8v-7.5h-2.7v-1.6h7.1V58.2z"/>
<path class="st1" d="M108.1 61.9h-3.3v3.8H103v-9.1h1.8v3.7h3.3v-3.7h1.8v9.1h-1.8V61.9z"/>
<path class="st1" d="M112.7 56.6h5.4v1.6h-3.6v2.1h3.3v1.6h-3.3v2.2h3.7v1.6h-5.5V56.6z"/>
<path class="st1" d="M125.3 63.7h-2.8l-0.7 2H120l3.3-9.2h1.3l3.3 9.2H126L125.3 63.7zM123 62.2h2l-0.7-2 -0.3-1.4h-0.1l-0.3 1.4L123 62.2z"/>
<path class="st1" d="M133.9 63.2c0-0.3-0.1-0.5-0.3-0.7 -0.2-0.2-0.5-0.3-0.8-0.5 -0.3-0.1-0.6-0.3-1-0.4 -0.4-0.2-0.7-0.3-1-0.6 -0.3-0.2-0.6-0.5-0.8-0.8s-0.3-0.7-0.3-1.3c0-0.4 0.1-0.8 0.2-1.2s0.4-0.6 0.6-0.8c0.3-0.2 0.6-0.4 1-0.5s0.8-0.2 1.2-0.2c0.5 0 1 0 1.5 0.1 0.5 0.1 0.9 0.2 1.2 0.4l-0.6 1.5c-0.2-0.1-0.5-0.2-0.9-0.3s-0.8-0.1-1.2-0.1c-0.4 0-0.7 0.1-1 0.2 -0.2 0.2-0.3 0.4-0.3 0.7 0 0.3 0.1 0.5 0.3 0.7s0.5 0.3 0.8 0.5 0.6 0.3 1 0.5c0.4 0.2 0.7 0.3 1 0.6 0.3 0.2 0.6 0.5 0.8 0.8 0.2 0.3 0.3 0.7 0.3 1.2 0 0.5-0.1 0.9-0.2 1.3 -0.2 0.4-0.4 0.6-0.7 0.9 -0.3 0.2-0.6 0.4-1.1 0.5 -0.4 0.1-0.9 0.2-1.4 0.2 -0.7 0-1.2-0.1-1.7-0.2 -0.5-0.1-0.9-0.2-1.1-0.4l0.6-1.5c0.1 0.1 0.2 0.1 0.4 0.2 0.2 0.1 0.3 0.1 0.5 0.2 0.2 0.1 0.4 0.1 0.6 0.1 0.2 0 0.4 0.1 0.7 0.1 0.5 0 0.9-0.1 1.2-0.3C133.8 63.9 133.9 63.6 133.9 63.2z"/>
<path class="st1" d="M144.6 58.2H142v7.5h-1.8v-7.5h-2.7v-1.6h7.1V58.2z"/>
</svg>