<?xml version="1.0" encoding="utf-8"?>
<!-- Generator: Adobe Illustrator 19.1.0, SVG Export Plug-In . SVG Version: 6.00 Build 0)  -->
<svg version="1.1" id="Layer_1" xmlns="http://www.w3.org/2000/svg" xmlns:xlink="http://www.w3.org/1999/xlink" x="0px" y="0px"
	 viewBox="0 0 133.6 45.4" style="enable-background:new 0 0 133.6 45.4;" xml:space="preserve">
<style type="text/css">
	.st0{fill:#1A2D4C;}
</style>
<g id="XMLID_509_">
	<path id="path5534_1_" class="st0" d="M0.1,0.9
		v3.5c0.1,0,0.2,0,0.3,0c3.4,0,3.6,1.3,3.8,3v30.9c0.1,2.1-0.8,3.1-4.1,3V45h7.7V11.8l20.1,33L28,45h0h3.4l0-37.5
		c0.1-1.7,0.4-3.1,3.8-3c0.1,0,0.2,0,0.3,0V0.9h-7.7V34l-5.3-8.7l-5.1-8.4L7.7,1l0-0.1H7.6H7.3L0.1,0.9z"/>
	<path id="path5536_1_" class="st0" d="
		M38,0.9v3.5c3.7-0.1,4,1.2,4.1,3v30.9c0.1,2.1-0.8,3.1-4.1,3V45h31.5v0h0v-8H66c-0.6,4-0.7,4.3-3.4,4.5H47.7V24.7h9.1
		c2,0,2.1,1.2,2.3,4.1h3.5V17.1h-3.5c-0.4,4.1-0.3,4.1-2.3,4.1h-9.1V4.5H63c2.5,0.4,2.8,1.2,3,4.5h3.5v-8h-0.3v0L38,0.9z"/>
	<path id="path5538_1_" class="st0" d="M72.1,0.9v3.5
		c3.7-0.1,4,1.2,4.1,3v30.9c0.1,2.1-0.8,3.1-4.1,3V45h26.7c9.9-3.3,6.9-25.6-1.5-25.2c8.1-6.4,5.3-18.7-1.9-18.8H72.1z M94,18.8
		H81.8V4.5h11.7C99.2,5.4,97.5,16.7,94,18.8z M81.8,22.4h12c7.6-0.2,8.2,18.8,0.8,19.1H81.8L81.8,22.4z"/>

		<path id="path5540_1_" class="st0" d="
		M114.9,2c-0.1,0-0.1,0.1-0.2,0.1c0,0-0.1,0.1-0.1,0.1c0,0,0,0,0,0c-0.1,0.1-0.2,0.1-0.3,0.2c0,0,0,0,0,0c-0.1,0-0.1,0.1-0.2,0.1
		c-0.1,0-0.1,0.1-0.2,0.1c0,0,0,0,0,0c-0.2,0.1-0.3,0.3-0.5,0.4c0,0,0,0,0,0c0,0,0,0,0,0c-0.1,0.1-0.2,0.2-0.3,0.3
		c-0.1,0.1-0.2,0.2-0.3,0.3c-0.1,0.1-0.2,0.2-0.3,0.3c-0.1,0.1-0.2,0.2-0.2,0.3c0,0,0,0,0,0c0,0-0.1,0.1-0.1,0.1
		c-0.1,0.1-0.1,0.1-0.2,0.2c0,0,0,0-0.1,0.1c0,0.1-0.1,0.1-0.1,0.2c0,0-0.1,0.1-0.1,0.1c-0.1,0.1-0.1,0.2-0.2,0.2
		c0,0.1-0.1,0.1-0.1,0.2c-0.1,0.1-0.1,0.2-0.2,0.3c0,0,0,0.1-0.1,0.1c-0.1,0.1-0.1,0.2-0.2,0.3c0,0,0,0,0,0
		c-0.1,0.1-0.2,0.2-0.2,0.4c-0.1,0.1-0.1,0.2-0.2,0.3c0,0.1-0.1,0.1-0.1,0.2c0,0,0,0.1-0.1,0.1c-0.2,0.3-0.4,0.7-0.5,1c0,0,0,0,0,0
		c-0.1,0.1-0.1,0.2-0.2,0.4c-0.1,0.3-0.2,0.5-0.3,0.8c-1.2,3-1.9,6.7-1.9,11.1c0,0.4,0,0.8,0,1.3c0,0.3,0,0.6,0,0.8c0,0,0,0,0,0
		c0,0.3,0,0.6,0,0.8c0,0.4,0,0.8,0,1.2c0,4.5,0.7,8.2,1.9,11.2c0.1,0.3,0.2,0.5,0.3,0.8c0.1,0.1,0.1,0.2,0.2,0.4c0,0,0,0,0,0
		c0.2,0.4,0.4,0.7,0.5,1.1c0.1,0.1,0.1,0.2,0.2,0.3c0,0,0,0,0,0c0,0.1,0.1,0.2,0.1,0.2c0.1,0.1,0.2,0.2,0.2,0.4c0,0,0,0,0,0
		c0,0,0,0,0,0c0,0,0,0,0,0.1c0.1,0.1,0.1,0.2,0.2,0.3c0,0,0,0.1,0.1,0.1c0.1,0.1,0.1,0.2,0.2,0.3c0,0.1,0.1,0.1,0.1,0.2
		c0,0,0,0,0,0.1c0,0.1,0.1,0.1,0.1,0.2c0.1,0.1,0.2,0.2,0.2,0.3c0,0,0,0,0.1,0.1c0.1,0.1,0.1,0.1,0.2,0.2c0,0,0.1,0.1,0.1,0.1
		c0,0,0,0,0,0c0,0,0,0,0,0c0.1,0.1,0.2,0.2,0.2,0.3c0.1,0.1,0.2,0.2,0.3,0.3c0.1,0.1,0.2,0.2,0.3,0.3c0.1,0.1,0.2,0.2,0.3,0.3
		c0,0,0,0,0,0c0,0,0,0,0,0c0.2,0.2,0.3,0.3,0.5,0.4c0,0,0,0,0,0c0.1,0,0.1,0.1,0.2,0.1c0.1,0,0.1,0.1,0.2,0.1c0,0,0,0,0,0
		c0.1,0.1,0.2,0.1,0.3,0.2c0,0,0,0,0,0c0,0,0.1,0.1,0.1,0.1c0.1,0,0.1,0.1,0.2,0.1c3.2,1.9,9.5,2.5,13,1.7c0,0,0,0,0,0
		c0.8-0.1,1.6-0.2,2.3-0.4l0,0.5c0,0,0,0,0,0v0h3.5v-7.8h-3.5c0,2-0.6,3.2-2,4.2c-2.8,1-8,0.8-10.8-0.6c0,0,0,0,0,0c0,0,0,0,0,0
		c0,0-0.1-0.1-0.1-0.1c0,0,0,0-0.1-0.1c0-0.1-0.1-0.1-0.1-0.2c0,0,0,0,0,0c0,0,0-0.1-0.1-0.1c0-0.1-0.1-0.1-0.1-0.2
		c0,0-0.1-0.1-0.1-0.1c0,0,0-0.1-0.1-0.1c-0.1-0.1-0.1-0.2-0.2-0.3c-0.1-0.1-0.1-0.2-0.2-0.3c0,0,0-0.1,0-0.1
		c-0.1-0.1-0.1-0.3-0.2-0.4c-0.1-0.1-0.1-0.3-0.2-0.5c-0.1-0.3-0.2-0.6-0.3-1c-0.1-0.5-0.3-1.1-0.4-1.7c0,0,0,0,0,0c0,0,0,0,0,0
		c-0.1-0.6-0.2-1.2-0.3-1.8c0,0,0,0,0,0c0-0.1,0-0.1,0-0.2c0-0.1,0-0.3-0.1-0.4c0,0,0-0.1,0-0.1c0-0.2-0.1-0.5-0.1-0.7
		c0-0.2-0.1-0.5-0.1-0.7c0-0.2-0.1-0.5-0.1-0.7c-0.1-0.5-0.1-1-0.2-1.5c-0.1-0.5-0.1-1-0.1-1.5c0-0.5-0.1-1-0.1-1.6
		c0-0.3,0-0.5,0-0.8c-0.1-1-0.1-2.1-0.1-3.1c0-1,0.1-2.1,0.1-3.1c0-0.3,0-0.5,0-0.8c0-0.5,0.1-1.1,0.1-1.6c0-0.5,0.1-1,0.1-1.5
		c0.1-0.5,0.1-1,0.2-1.5c0-0.2,0.1-0.5,0.1-0.7c0-0.2,0.1-0.5,0.1-0.7c0-0.2,0.1-0.5,0.1-0.7c0,0,0-0.1,0-0.1c0-0.1,0-0.3,0.1-0.4
		c0-0.1,0-0.1,0-0.2c0,0,0,0,0,0c0.1-0.6,0.2-1.2,0.3-1.8c0,0,0,0,0,0c0,0,0,0,0,0c0.1-0.6,0.3-1.1,0.4-1.7c0.1-0.3,0.2-0.7,0.3-1
		c0.1-0.2,0.1-0.3,0.2-0.5c0.1-0.1,0.1-0.3,0.2-0.4c0,0,0-0.1,0-0.1c0.1-0.1,0.1-0.2,0.2-0.3c0.1-0.1,0.1-0.2,0.2-0.3
		c0,0,0-0.1,0.1-0.1c0,0,0.1-0.1,0.1-0.1c0-0.1,0.1-0.1,0.1-0.2c0,0,0-0.1,0.1-0.1c0,0,0,0,0,0c0-0.1,0.1-0.1,0.1-0.2
		c0,0,0,0,0.1-0.1c0,0,0.1-0.1,0.1-0.1c0,0,0,0,0,0c0,0,0,0,0,0c2.8-1.4,7.9-1.6,10.8-0.6c1.4,1,2,2.2,2,4.2h3.5V0.2h-3.5v0
		c0,0,0,0,0,0l0,0.5c-0.7-0.1-1.5-0.3-2.3-0.4c0,0,0,0,0,0C124.3-0.4,117.8,0.1,114.9,2L114.9,2z"/>
</g>
</svg>
