<?xml version="1.0" encoding="utf-8"?>
<!-- Generator: Adobe Illustrator 19.1.0, SVG Export Plug-In . SVG Version: 6.00 Build 0)  -->
<svg version="1.1" id="Layer_1" xmlns="http://www.w3.org/2000/svg" xmlns:xlink="http://www.w3.org/1999/xlink" x="0px" y="0px"
	 viewBox="0 0 111 111.1" style="enable-background:new 0 0 111 111.1;" xml:space="preserve">
<style type="text/css">
	.st0{fill:#1A2D4C;}
</style>
<g>
	<path class="st0" d="M39.2,93.6c-0.1-0.1-0.2-0.1-0.3-0.1c-0.3,0-0.6,0.7-1.5,2.8c-0.9,2-1,2.5-0.8,2.6C36.7,99,36.9,99,37,99
		c0.1,0,0.7-1.2,1.3-2.6C39.4,94,39.5,93.8,39.2,93.6z"/>
	<path class="st0" d="M38.1,93.3c0-0.2-3.8-2.2-4.1-2.2c-0.1,0-0.2,0.1-0.2,0.3c0,0.2,0.2,0.5,0.7,0.7c0.4,0.2,0.7,0.5,0.7,0.6
		s-0.5,1.2-1.1,2.3c-0.9,1.8-1,2.1-0.8,2.3c0.1,0.1,0.3,0.2,0.4,0.2c0.1,0,0.7-1,1.3-2.2c0.6-1.2,1.1-2.2,1.2-2.2s0.4,0.2,0.8,0.4
		C37.7,93.8,38.1,93.7,38.1,93.3z"/>
	<path class="st0" d="M45.4,96c-0.1-0.1-0.3-0.2-0.5-0.2c-0.4-0.1-0.7,0.3-2.6,2.6c-0.6,0.7-1,1.3-1,1.3c0,0,0-1.2,0-2.6l0.1-2.5
		l-0.6-0.2c-0.3-0.1-0.6-0.2-0.6-0.2l0,0c0,0-0.4,0.9-0.8,2c-1.4,3.8-1.3,3.5-1,3.6c0.4,0.3,0.6,0.1,1-1c0.2-0.6,0.5-1.5,0.7-2
		l0.3-0.9l0,2.3c0,2.1,0,2.3,0.3,2.5c0.3,0.2,0.5,0,1.8-1.6c0.8-1,1.5-1.8,1.6-1.8c0,0-0.1,0.4-0.3,0.9c-0.7,1.7-1.2,3.2-1,3.3
		c0.1,0.1,0.3,0.1,0.4,0.1c0.2,0,0.4-0.4,0.7-1.2c0.2-0.6,0.6-1.8,0.9-2.7C45.3,96.8,45.5,96,45.4,96z"/>
	<path class="st0" d="M30.2,88.4c-0.1,0-0.1,0-0.2,0v0c-0.5,0-1.4,0.4-1.4,0.7c0,0.4,0.5,0.5,0.9,0.3c0.6-0.3,1.1-0.2,1.4,0.3
		c0.4,0.5,0.2,1.2-0.4,1.4c-0.2,0.1-1.2,0.3-2.1,0.4c-1.5,0.2-2.5,0.5-2.5,0.8c0,0.1,0.3,0.3,0.6,0.6s1,0.7,1.5,1.2
		c0.9,0.7,0.9,0.7,1.2,0.5c0.3-0.3,0.2-0.3-0.4-0.8c-0.4-0.3-0.9-0.7-1.1-0.9l-0.4-0.4l1.2-0.1c2-0.2,2.3-0.3,2.8-0.7
		C32.6,90.6,31.9,88.8,30.2,88.4z"/>
	<path class="st0" d="M17.3,71.4c0,0.2-3.6,1.6-3.8,1.5c-0.2-0.1,2.8-3.7,3-3.6c0.1,0,0.2,0,0.2-0.2c0-0.4-0.6-1.6-0.8-1.6
		c0,0,0,0,0,0c0,0.1-0.6,0.4-1.3,0.7c-0.7,0.3-2,0.8-2.9,1.1C10.7,69.8,9.9,70,9.8,70c-0.2-0.1-0.2,0.3,0.1,1
		c0.2,0.6,0.3,0.6,0.5,0.4c0.4-0.3,3.5-1.5,3.4-1.3c-0.4,0.7-2.5,3.2-2.7,3.2c-0.3,0-0.3,0,0.1,1.1c0.4,0.9,0.6,1.2,0.7,0.8
		C12,75,17.2,73,17.7,73c0.5,0,0.5-0.1,0.1-1C17.6,71.4,17.3,71,17.3,71.4z"/>
	<path class="st0" d="M95.2,38.2c-0.9,0.4-1.4,1-1.6,1.8c-0.3,1.2,0.4,2.7,1.6,3.2c0.7,0.3,1.6,0.2,2.6-0.3c1-0.5,1.5-1.2,1.6-2.3
		c0.1-1.7-1.1-2.8-2.6-2.9C96.2,37.8,95.7,37.9,95.2,38.2z M98.2,40.4c0,1-0.8,1.7-2.1,1.7c-0.7,0-0.9-0.1-1.2-0.5
		c-0.7-0.9-0.4-1.8,0.7-2.3c0.3-0.2,0.7-0.3,1-0.3c0.1,0,0.2,0,0.3,0C97.7,39.1,98.2,39.6,98.2,40.4z"/>
	<path class="st0" d="M11.2,66.3c0.6,0.3,2.1,0.1,2.8-0.3c1.5-0.9,1.9-2.7,0.9-4c-0.6-0.8-1.3-1.1-2.4-1.1c-2.2,0-3.6,1.9-2.8,3.9
		C10,65.5,10.5,66,11.2,66.3z M12.3,62.2c0.1,0,0.2,0,0.2,0v0c0.1,0,0.2,0,0.3,0c0.2,0,0.3,0.1,0.5,0.1c0.7,0.2,1,0.6,1,1.4
		c0,0.5-0.7,1.4-1.1,1.4c-0.1,0-0.4,0-0.7,0.1c-0.3,0-0.7,0-0.9,0c-0.5-0.1-1.1-0.8-1.1-1.3C10.5,63,11.4,62.3,12.3,62.2z"/>
	<path class="st0" d="M71.3,99.4c-0.7,0.2-1.2,0.4-1.3,0.4c-0.1,0,0.2-0.7,0.7-1.4c0.9-1.7,1.1-2.6,0.4-3.3
		c-0.4-0.4-0.7-0.6-1.2-0.5c-0.3,0-0.5,0.1-0.9,0.3c-0.9,0.4-1.4,1.2-1.2,1.9c0.1,0.5,0.8,0.2,0.8-0.4c0.1-1,1.5-1.3,2-0.4
		c0.3,0.5,0.2,0.5-0.6,2.2c-0.6,1.1-0.9,2-0.9,2.3c0,0.3,0,0.6,0.1,0.6c0,0,0.8-0.3,1.8-0.6c1.9-0.7,2-0.7,1.8-1.1
		C72.5,99,72.3,99,71.3,99.4z"/>
	<path class="st0" d="M77.3,96.7c-0.6,0.3-1.1,0.5-1.1,0.5c0,0,0.2-0.7,0.4-1.5c0.7-1.8,0.7-2.5,0-3.1c-0.4-0.4-0.5-0.5-0.9-0.5
		c-0.1,0-0.3,0-0.4,0c-1.1,0.1-1.8,0.8-1.8,1.8c0,0.7,0.1,0.8,0.6,0.6c0.2-0.1,0.2-0.2,0.2-0.5c-0.1-0.5,0.5-1.3,1-1.3
		c1.1,0,1.3,1.2,0.5,3.1c-0.6,1.4-0.7,2.6-0.2,2.6c0,0,0.8-0.4,1.7-0.8c0.9-0.4,1.6-0.9,1.6-1C78.9,96.1,78.3,96.1,77.3,96.7z"/>
	<path class="st0" d="M84.5,91c0.3-0.3,0.3-0.3,0-0.5c-0.2-0.2-0.3-0.2-0.5,0c-0.3,0.3-0.4,0.2-1.6-1.3c-0.6-0.7-1.1-1.3-1.1-1.3
		l0,0c0,0-0.2,0.1-0.3,0.2c-0.2,0.1-0.2,0.6-0.1,2.5c0.1,2,0.3,2.9,0.7,2.9c0,0,0.5-0.4,1-0.8l0.9-0.8l0.5,0.6
		c0.4,0.5,0.5,0.6,0.8,0.3s0.2-0.3-0.1-0.8C84.2,91.3,84.2,91.3,84.5,91z M82.4,91.7c-0.3,0.3-0.6,0.5-0.7,0.5
		c-0.1,0-0.2-0.6-0.2-1.3c-0.1-0.7-0.1-1.3-0.1-1.4c0,0,0.4,0.4,0.8,0.9l0.7,0.9L82.4,91.7z"/>
	<path class="st0" d="M49.5,96.7c-0.4-0.3-1.2-0.4-1.8-0.3c-0.4,0-0.8,0.1-1,0.3c-1.1,0.6-1.8,2.5-1.4,3.9c0.4,1.1,1.4,1.9,2.6,1.9
		c0.7,0,1-0.1,1.6-0.5C51.2,100.6,51.2,97.7,49.5,96.7z M48.8,101.3c-0.7,0.4-1.1,0.4-1.8,0.1c-0.5-0.2-1.1-1.2-1.1-1.8
		c0-0.7,0.4-1.7,0.9-2.2c0.3-0.3,0.7-0.5,1.1-0.5c0.3,0,0.5,0.1,0.9,0.2C50.2,97.7,50.3,100.4,48.8,101.3z"/>
	<path class="st0" d="M73.9,98.2c-0.3,0-0.5,0.3-0.3,0.8c0.1,0.3,0.2,0.3,0.7,0.1c0.3-0.1,0.3-0.2,0.2-0.5
		C74.3,98.3,74.1,98.2,73.9,98.2z"/>
	<path class="st0" d="M72.4,95.1c-0.1,0-0.2,0-0.3,0.1c-0.2,0.1-0.2,0.2,0,0.5c0.2,0.3,0.2,0.3,0.5,0.2c0.2-0.1,0.3-0.3,0.3-0.5
		C72.9,95.2,72.7,95.1,72.4,95.1z"/>
	<path class="st0" d="M65.4,95.8L65.4,95.8c0,0-0.1,0-0.1,0c-0.1,0-0.2,0.1-0.3,0.1c-0.3,0.1-0.6,0.6-1,1.6l-0.6,1.4l-1-1.1l-1-1.1
		l-1,0l-1,0l0.1,1.2l0.1,1.2l-1.3,0.1c-1.5,0.1-1.6,0.1-1.6-1.1c0-0.4-0.1-0.9-0.1-0.9c-0.1-0.2-1.8-0.3-4.2-0.3
		c-0.9,0-1.1,0-1.2,0.3c0,0.2,0.1,0.3,0.9,0.4l1,0.1L52.9,99c-0.1,0.7-0.2,1.8-0.2,2.6l-0.1,1.3H53c0.4,0,0.4,0,0.7-2.5l0.2-2.5
		l0.9,0.1l0.9,0.1l0.3,2.5c0.2,2.5,0.3,2.5,0.7,2.5H57l-0.1-1.4l-0.1-1.4l1.4-0.1c0.8-0.1,1.5-0.1,1.5-0.1c0,0,0.1,0.6,0.2,1.4
		c0.1,1.2,0.1,1.3,0.5,1.3c0.5,0,0.5-0.1,0.2-3.1c-0.1-1.2-0.2-2.2-0.1-2.3s0.7,0.5,1.4,1.2c1.1,1.1,1.3,1.5,1.5,2.2
		c0.1,0.5,0.2,1,0.2,1.2c0,0.2,0.1,0.3,0.4,0.3c0.2,0,0.4,0,0.5-0.1c0.1-0.1,0-0.6-0.2-1.2L64,99.7l0.8-1.9
		C65.2,96.8,65.6,95.9,65.4,95.8C65.5,95.8,65.5,95.8,65.4,95.8z"/>
	<path class="st0" d="M14.5,59.1c0.2,0.2,0.2,0,0.2-0.8c0-0.5-0.1-1-0.2-1c-0.1,0-0.2,0.1-0.2,0.2c0,0.1-0.5,0.2-1,0.2
		c-1,0-1,0-1-0.5c0-0.4,0.1-0.5,0.9-0.9c0.5-0.3,1.1-0.4,1.2-0.4c0.2,0.1,0.3-0.1,0.3-0.9c0-0.5,0-1-0.1-1c0,0-0.6,0.3-1.2,0.7
		l-1.2,0.7l-0.5-0.6c-0.4-0.5-0.6-0.6-1.2-0.6c-1.3,0-1.8,1-1.7,3.5C9,59.1,9,59.2,9.3,59c0.2-0.1,1.3-0.2,2.6-0.2
		C13.5,58.9,14.3,58.9,14.5,59.1z M10.6,57.6L10,57.7l0.1-1c0-0.9,0.1-1,0.5-1c0.1,0,0.1,0,0.2,0h0c0.4,0,0.4,0.3,0.5,1.4
		C11.3,57.5,11.3,57.6,10.6,57.6z"/>
	<path class="st0" d="M73.3,19.3c0.8,0.4,0.9,0.4,0.9,0c0-0.2,0.4-1.2,0.9-2.2l0.9-1.8l0.7,0.3c0.4,0.2,0.7,0.4,0.7,0.5
		c0,0.4,0.3,0.1,0.6-0.4c0.3-0.7,0.4-1,0.1-0.9c-0.3,0.2-4-1.6-4-1.9c0-0.2-0.1-0.2-0.1-0.2c-0.1,0-0.3,0.3-0.5,0.8L73,14.3h0.4
		c0.5,0,1.3,0.3,1.3,0.5c0,0.3-1.8,3.8-1.9,3.8C72.4,18.6,72.7,19,73.3,19.3z"/>
	<path class="st0" d="M52.7,12.2v3.1h1.7c1,0,2,0,2.3-0.1s0.8-0.3,1-0.6c0.4-0.4,0.5-0.6,0.5-1.3c0-0.7-0.1-0.9-0.5-1.3l-0.5-0.5
		l0.5-0.5c0.4-0.4,0.4-0.7,0.3-1.1c-0.2-1.3-0.9-1.6-3.6-1.6h-2l0.1,0.4C52.7,8.9,52.7,10.5,52.7,12.2z M54.2,10.3V9.5h1
		c1.1,0,1.4,0.2,1.4,0.8c0,0.5-0.5,0.7-1.5,0.7h-0.9V10.3z M54.2,13.2v-1h1.1c1.2,0,1.7,0.3,1.7,1c0,0.6-0.6,0.9-1.8,0.9h-1V13.2z"
		/>
	<path class="st0" d="M43,16.8c-0.1,0.3-0.1,0.3,0.6,0.2c0.4-0.1,0.8-0.2,0.9-0.2c0.1-0.1,0.1-0.2-0.1-0.3c-0.2-0.3-0.9-3.1-0.7-3.2
		c0.1-0.2,2.6,2.6,2.5,2.9c0,0.1-0.1,0.2,0,0.2c0.3,0,1.8-0.4,1.8-0.4c0,0-0.1-0.2-0.3-0.3c-0.1-0.1-0.3-0.4-0.3-0.6
		c0-0.2-0.2-1.1-0.4-2.2c-0.2-1-0.4-2-0.3-2.2c0.1-0.2,0-0.3-0.1-0.3h0c0,0-0.1,0-0.1,0c-0.2,0-0.6,0.1-0.9,0.2
		c-0.6,0.1-0.7,0.3-0.3,0.5c0.2,0.1,0.6,1.9,0.6,2.6c0,0.1-0.5-0.3-1.1-0.9c-0.8-0.7-1.1-1.2-1-1.4c0.1-0.4,0.1-0.4-1.1-0.1
		c-1.1,0.2-1.1,0.2-0.8,0.6C42.3,12.1,43.2,16.4,43,16.8z"/>
	<path class="st0" d="M82.4,23.8c-0.6,0-1.9-1.2-1.8-1.7c0.1-0.4,0.1-0.4-0.8,0l-0.7,0.4l1.1,1.1c1.2,1.2,1.6,1.4,2.5,1.4
		c0.5,0,0.8-0.1,1-0.4c0.8-0.9,0.7-1.6-0.5-3.1c-0.7-0.9-0.7-1.1-0.4-1.4c0.5-0.5,1.9,0.9,1.6,1.6c-0.1,0.3-0.1,0.3,0.9-0.1l0.8-0.3
		l-0.9-1c-0.8-0.9-1.7-1.4-2.4-1.4l0,0c-0.5,0-1,0.3-1.3,0.8c-0.3,0.6-0.2,1.1,0.5,2.1C83.2,23.3,83.3,23.8,82.4,23.8z"/>
	<path class="st0" d="M34.9,14.6c0.4,0.3,2.2,4.4,2.1,4.7c0,0.1-0.1,0.3,0,0.3c0.1,0.1,1.6-0.6,1.6-0.8c0-0.1-0.1-0.1-0.2-0.1
		c-0.2,0-0.9-1.5-0.8-1.8c0-0.1,0.2-0.2,0.4-0.2c0.5,0,1.9,1.2,1.8,1.5c-0.1,0.3,0.1,0.3,1-0.2c0.7-0.4,1-0.7,0.6-0.7
		c-0.1,0-0.6-0.3-1.1-0.7l-0.9-0.7l0.3-0.5c0.3-0.6,0.3-1.1,0.1-1.6c-0.3-0.5-0.6-0.8-1.2-0.8s-1.2,0.2-2.1,0.6
		c-0.7,0.3-1.4,0.6-1.6,0.7C34.6,14.3,34.6,14.4,34.9,14.6z M37.6,14.2c0.2-0.1,0.4-0.1,0.5-0.1c0.5,0,0.8,0.2,0.8,0.5
		c0,0.4-0.2,0.6-1.1,0.9l-0.7,0.3l-0.2-0.6C36.6,14.7,36.6,14.6,37.6,14.2z"/>
	<path class="st0" d="M87,23.5c0.2,0,0.5,0.2,0.7,0.4l0.4,0.4l-1.4,1.4c-0.8,0.8-1.5,1.4-1.8,1.5c-0.5,0.1-0.5,0.2,0.2,0.9
		c0.6,0.6,0.8,0.7,0.8,0.4c0-0.2,2.7-3.1,3-3.1c0.2,0,1,0.9,1,1.2c0,0.4,0.2,0.3,0.9-0.4c0.4-0.4,0.5-0.6,0.3-0.6
		c-0.3,0-3.1-2.8-3.2-3.2c0,0,0-0.1-0.1-0.1c0,0-0.1,0-0.1,0c-0.1,0-0.3,0.2-0.5,0.4C86.6,23.3,86.5,23.5,87,23.5z"/>
	<path class="st0" d="M67.4,16.7c-0.1-0.2,0-0.7,0.2-1.2l0.3-0.8l0.7,0.2c2,0.7,3.2,0,3-1.7c-0.1-0.6-0.9-1.3-2.4-1.7
		c-1.1-0.3-1.5-0.5-1.6-0.4c-0.1,0-0.1,0.1-0.1,0.3c0,0.5-1.3,4.4-1.5,4.7c-0.1,0.2-0.2,0.3-0.2,0.3c0.1,0,1.6,0.6,1.7,0.6
		C67.5,17.1,67.5,16.9,67.4,16.7z M68.4,13c0.1-0.3,0.2-0.5,0.4-0.6c0,0,0.1,0,0.1,0c0,0,0.1,0,0.2,0.1c0.7,0.2,1.3,0.6,1.3,0.8
		c0,0.8-0.5,1-1.7,0.6c-0.3-0.1-0.5-0.2-0.6-0.2C68.2,13.7,68.3,13.4,68.4,13z"/>
	<path class="st0" d="M60.3,15.6c0.5,0.1,0.5,0.1,0.5-0.4c0-0.8,0.2-0.9,1.3-0.7c0.8,0.2,1,0.3,1,0.7c0,0.3,0,0.5-0.1,0.6
		c-0.3,0.2-0.1,0.3,0.8,0.5c0.9,0.2,1.1,0.1,0.8-0.3c-0.3-0.5-1-5.1-0.8-5.2c0.3-0.2,0-0.3-0.7-0.5c-0.5-0.1-0.8-0.2-1-0.1
		c-0.2,0-0.2,0.1-0.2,0.2c0.1,0.2-1.6,3.4-2.5,4.5C59.2,15.4,59.1,15.4,60.3,15.6z M62.6,11.9c0.1,0,0.4,0.9,0.4,1.5
		c0,0.2-0.3,0.3-0.9,0.1c-0.2,0-0.3-0.1-0.3-0.2C61.8,13.1,62.5,11.9,62.6,11.9z"/>
	<path class="st0" d="M76.8,20.7c-0.3,0.2-0.3,0.2,0.4,0.7c0.9,0.6,1,0.6,1,0.2c0-0.4,2.4-4.3,2.8-4.4c0.2,0,0.1-0.2-0.4-0.5
		c-0.4-0.3-0.8-0.5-1-0.5c0,0-0.1,0-0.1,0c0,0,0,0.1,0,0.2C79.6,16.6,77.2,20.5,76.8,20.7z"/>
	<path class="st0" d="M22.9,27.4c1.2-0.8,1.7-0.9,1.8-0.3c0.2,0.7-0.8,1.8-1.7,1.8c-0.3,0-0.6,0-0.6,0.1c0,0.1,0.8,1.6,0.8,1.6
		c0,0,0.2-0.2,0.4-0.4c0.2-0.2,0.7-0.6,1-0.9c0.8-0.6,1.4-1.8,1.3-2.5c-0.1-0.3-0.3-0.7-0.5-0.9c-0.7-0.6-1.4-0.5-2.8,0.3
		c-1.3,0.8-1.6,0.8-1.6,0.1c0-0.7,1.2-1.5,1.7-1.1c0.2,0.2,0.3,0.1,0.2-0.3c-0.1-0.3-0.2-0.7-0.3-1c-0.1-0.3-0.2-0.4-0.3-0.4l0,0
		c-0.1,0-0.1,0.1-0.2,0.2c-0.2,0.2-0.6,0.5-0.8,0.6c-0.6,0.4-1.4,1.6-1.4,2.1c0,0.2,0.1,0.6,0.2,0.9C20.6,28.4,21.5,28.4,22.9,27.4z
		"/>
	<path class="st0" d="M29.2,18.1c0.3,0,2.8,4.1,2.7,4.3c-0.3,0.4,0.5,0.1,2-0.9c0.9-0.6,1.7-1,1.8-0.9c0.3,0.2,0.2-0.3-0.2-0.9
		c-0.4-0.7-0.6-0.7-0.7-0.3c0,0.2-0.5,0.6-1.1,0.9l-1,0.6l-0.4-0.5l-0.4-0.5l0.4-0.3c0.2-0.2,0.6-0.3,0.9-0.4
		c0.6-0.1,0.6-0.1,0.1-0.9c-0.4-0.6-0.7-0.8-0.7-0.4c0,0.1-0.3,0.4-0.6,0.6l-0.6,0.3l-0.3-0.4c-0.2-0.2-0.3-0.5-0.2-0.5
		c0.2-0.3,2.2-1.4,2.3-1.3c0.3,0.2,0.2-0.1-0.2-0.8c-0.2-0.4-0.3-0.6-0.4-0.5c-0.1,0-0.1,0.1-0.2,0.2c-0.2,0.2-0.9,0.8-1.7,1.3
		C29.2,17.7,28.7,18.1,29.2,18.1z"/>
	<path class="st0" d="M16.3,31.4c0.2-0.1,0.7,0.6,1.8,1.9c0.8,1.1,1.5,2.2,1.6,2.3c0.1,0.5,0.3,0.4,0.7-0.3c0.4-0.7,0.4-1,0.1-0.8
		c-0.1,0-0.4-0.1-0.5-0.3c-0.3-0.4-0.2-0.5,0.3-1.2c0.5-0.8,1.2-1.1,1.4-0.5c0.1,0.1,0.2,0.3,0.2,0.3c0.1,0,1-1.3,1-1.5
		c0,0-0.2-0.1-0.5-0.1c-0.8,0-4.7-1-5-1.3c-0.1-0.1-0.2-0.2-0.3-0.2c-0.1,0-1.2,1.7-1.2,1.8C16.1,31.4,16.2,31.4,16.3,31.4z
		 M19.7,31.9c0,0.1-0.1,0.3-0.3,0.5L19,32.8l-0.6-0.7c-0.3-0.4-0.6-0.7-0.5-0.8C18.1,31.3,19.7,31.8,19.7,31.9z"/>
	<path class="st0" d="M10.3,45.8c0.3-0.1,1.5,0.2,3.9,0.9c0.5,0.1,0.9,0.4,1,0.5c0.2,0.4,0.3,0.3,0.5-0.5c0.1-0.4,0.2-0.8,0.3-1
		c0.1-0.2,0-0.2-0.3-0.2c-0.5,0.2-2.3-0.4-2.2-0.7c0-0.1,0.2-0.6,0.3-1c0.1-0.4,0.2-0.8,0.3-0.9c0.1-0.1,1.8,0.3,2,0.6
		c0.3,0.3,0.4,0.2,0.6-0.4c0.3-0.7,0.2-1.2-0.1-1.1c-0.4,0.1-4.7-1-4.9-1.3c-0.1-0.1-0.1-0.2-0.2-0.2c-0.1,0-0.3,0.2-0.4,0.6
		c-0.2,0.8-0.2,1.1,0,1c0.1-0.1,0.6,0,1,0.1c0.7,0.2,0.8,0.3,0.8,0.5c-0.1,0.1-0.2,0.6-0.3,1c-0.1,0.4-0.2,0.8-0.3,0.8
		c-0.2,0.1-1.6-0.3-1.7-0.6c-0.1-0.2-0.2-0.1-0.3,0.3c-0.1,0.3-0.2,0.7-0.3,1C10,45.8,10,45.9,10.3,45.8z"/>
	<path class="st0" d="M12.7,38.4c0.3-0.1,4.6,1.8,4.7,2.2c0.2,0.4,0.3,0.2,1-1.5c0.4-0.9,0.9-1.8,1.1-2l0.4-0.4l-0.7-0.3
		c-0.7-0.3-1-0.3-1,0.1c0,0.1-0.2,0.7-0.5,1.3L17.3,39l-0.6-0.3c-0.3-0.2-0.6-0.3-0.6-0.3c-0.1-0.1,0.5-1.2,0.8-1.4
		c0.2-0.2,0.2-0.2-0.1-0.4c-0.2-0.1-0.6-0.3-0.8-0.4c-0.4-0.1-0.4-0.1-0.4,0.1c0.1,0.2-0.2,1.2-0.5,1.5C15,38,13.9,37.5,14,37.3
		c0-0.1,0.3-0.6,0.5-1.1c0.2-0.5,0.6-1.1,0.7-1.2c0.3-0.2,0.2-0.2-0.5-0.5l-0.8-0.3l-0.1,0.6c-0.1,0.3-0.4,1.1-0.7,1.8
		C12.4,38.1,12.3,38.6,12.7,38.4z"/>
	<path class="st0" d="M24.7,22.9c0-0.1,0.2-0.4,0.5-0.7l0.5-0.5l1.4,1.7c0.8,0.9,1.4,1.7,1.3,1.8c-0.2,0.4,0.5,0.1,1-0.5
		c0.4-0.4,0.5-0.6,0.3-0.6c-0.3,0-2.9-2.9-2.9-3.2c0-0.2,0.9-0.8,1.3-0.9c0.3-0.1,0.3-0.2-0.3-0.8c-0.3-0.3-0.5-0.5-0.6-0.5
		c0,0,0,0,0,0.1c0,0.3-3,2.9-3.4,2.9c-0.4,0-0.3,0.1,0.2,0.8C24.4,23.2,24.7,23.3,24.7,22.9z"/>
	<path class="st0" d="M91.6,36.4c0.4,0.3,0.8,0.6,0.9,0.8c0.4,0.4,0.5,0.3,0.9-0.7c0.2-0.5,0.3-0.9,0.3-0.9s-0.2,0-0.5,0.1
		c-0.7,0.1-1.6-0.7-1.6-1.4c0-1.2,1.5-2.5,2.9-2.5c0.9,0,1.4,0.4,1.7,1.2c0.2,0.6,0.2,0.7-0.1,1c-0.3,0.3-0.3,0.3,0.7,0.3h1
		l-0.1-0.6c-0.4-2.4-1.4-3.5-3.2-3.5c-2.1,0-4,1.7-4,3.7C90.4,35,90.8,35.7,91.6,36.4z"/>
	<path class="st0" d="M10.2,51.9c-0.1-0.6,0-0.8,0.2-0.9c0.4-0.1,3.8,0.4,4.1,0.7c0.2,0.1,0.3,0,0.4-0.7c0.1-0.5,0.1-0.8,0.1-0.9
		c0,0-0.7-0.1-1.6-0.1c-0.8,0-1.9-0.2-2.2-0.2c-0.6-0.1-0.7-0.2-0.7-0.7c0-0.3,0.1-0.7,0.2-0.9c0.3-0.3,0.2-0.4-0.9-0.6
		c-0.2,0-0.4,0-0.5,0c-0.1,0-0.1,0.1-0.1,0.4c0.1,0.6-0.4,4-0.6,4.3c-0.2,0.2,0.1,0.4,1,0.4C10.3,52.7,10.3,52.6,10.2,51.9z"/>
	<path class="st0" d="M80,93.1c-0.1,0-0.4,0.2-1,0.6c-0.8,0.5-1,0.7-0.6,1.1c0.1,0.1,0.4,0,1.1-0.4c0.8-0.5,0.9-0.7,0.7-0.9
		C80.1,93.2,80.1,93.1,80,93.1z"/>
	<path class="st0" d="M96.7,57.6c-0.1-0.1-0.2-0.1-0.2-0.2h0c0,0,0,0-0.1,0c0,0-0.1,1-0.3,2.1s-0.3,2.1-0.4,2.2
		c-0.3,0.2,0.3,0.3,1,0.3c0.6,0,0.7-0.1,0.5-0.4c-0.1-0.1-0.1-2.5,0.1-2.7c0,0,0.4,0,0.7,0.1c0.7,0.1,0.7,0.1,0.6,0.8
		c-0.1,0.3-0.2,0.7-0.3,0.8c-0.3,0.3-0.1,0.4,0.7,0.4c0.7,0,0.9,0,0.7-0.2c-0.1-0.1-0.2-0.5-0.2-0.9c0.1-0.6,0.1-0.7,0.7-0.7h0.6
		l-0.1,1.2c0,0.7-0.1,1.3-0.2,1.4c-0.3,0.3-0.1,0.4,0.6,0.4h0.7l0.1-2.2l0.1-2.2l-2.5,0C97.9,57.8,96.8,57.7,96.7,57.6z"/>
	<path class="st0" d="M98.2,63.4L98.2,63.4c-0.2,0-0.4,0-0.6,0c-1.5,0.2-2.5,1.4-2.5,3.1c0,1.4,0.2,1.6,1.2,1.8
		c0.5,0.1,1,0.3,1.1,0.5c0.2,0.2,0.3,0.1,0.5-1c0.2-0.7,0.4-1.3,0.5-1.4c0.3-0.1,0-0.3-0.7-0.5c-0.6-0.1-0.7-0.1-0.6,0.2
		c0.2,0.5-0.1,1-0.5,1C96,67,96,66,96.6,65.3c0.4-0.5,0.5-0.6,1.4-0.6c0.8,0,1,0.1,1.5,0.5c0.5,0.4,0.6,0.6,0.6,1.2
		c0,0.8-0.5,1.4-1,1.4c-0.2,0-0.3,0-0.3,0.1c0,0.1,0.9,1.2,1,1.3c0,0,0.3-0.3,0.6-0.8c0.7-1.1,0.9-1.9,0.6-2.8
		C100.6,64.3,99.5,63.4,98.2,63.4z"/>
	<path class="st0" d="M98.8,71.7c-0.7,0-4.2-1.4-4.5-1.7c-0.1-0.1-0.1-0.1-0.2-0.1h0c-0.2,0-0.3,0.4-1,2.3c-0.3,0.7-0.6,1.4-0.7,1.5
		c-0.3,0.2-0.3,0.2,0.4,0.5c0.7,0.3,1,0.3,0.9-0.1c0-0.5,0.8-2.5,1-2.5c0.2,0,0.8,0.3,1,0.4c0.1,0.1-0.5,1.3-0.8,1.4
		c-0.3,0.2-0.2,0.2,0.2,0.4c0.9,0.3,1.4,0.4,1.3,0.2c-0.1-0.1,0-0.5,0.1-0.9c0.2-0.7,0.5-0.9,1.1-0.5c0.3,0.2,0.3,0.3-0.1,1.3
		c-0.2,0.6-0.5,1.1-0.6,1.2s-0.2,0.3-0.2,0.3c0.1,0.1,1.3,0.5,1.5,0.6c0,0,0-0.1-0.1-0.3c-0.1-0.2,0.2-1.1,0.6-2.1s0.7-1.8,0.7-1.9
		C99.4,71.8,99.2,71.7,98.8,71.7z"/>
	<path class="st0" d="M96.4,51.6c-0.3-0.4-0.3,0.1-0.2,2c0.1,1.2,0.1,2.1,0,2.2c-0.1,0.1-0.1,0.2,0,0.3c0.1,0.1,1.4,0,1.6-0.2
		c0,0,0-0.1-0.1-0.2c-0.1-0.1-0.2-0.7-0.3-1.4L97.3,53l0.6-0.1c0.3-0.1,1.4-0.1,2.3-0.2l1.8,0v-0.8c0-0.6,0-0.9-0.2-0.9
		c0,0-0.1,0-0.1,0c-0.1,0-0.2,0.1-0.3,0.1C100.7,51.5,96.6,51.8,96.4,51.6z"/>
	<path class="st0" d="M92.7,49.2c-1.8-10.9-8.6-20.6-18.3-26.3c-4.1-2.4-8.5-4-13.8-4.8c-1.1-0.2-3.2-0.2-5.4-0.2v0
		c-2.2,0-4.3,0.1-5.5,0.3c-10.5,1.7-19.5,7.4-25.6,16.1c-1,1.4-1.6,2.5-2.6,4.5c-0.9,1.8-1,2.1-1.9,4.6c-0.5,1.5-1.3,4.7-1.6,6.7
		c-0.3,2-0.3,9,0,11c2.2,13.9,11.4,25.1,24.4,30c2.8,1,5.9,1.8,9.4,2.2c1.4,0.2,8.1,0,9.6-0.3c12.3-2.1,22.7-9.9,28-21.1
		C93,64.8,94.1,57.1,92.7,49.2z M55.4,93.1c-20.6,0-37.3-16.8-37.3-37.6C18.1,34.8,34.8,18,55.4,18C76,18,92.7,34.8,92.7,55.5
		C92.7,76.3,76,93.1,55.4,93.1z"/>
	<path class="st0" d="M108,37.3C102,20.1,87.8,6.8,70.2,2c-4.9-1.3-9.5-2-14.6-2v0C47.9,0,41,1.4,34,4.3C27,7.2,21.8,10.8,16.2,16.4
		C11,21.6,7.1,27.3,4.5,33.5C1.4,40.9,0,47.8,0,55.6c0,4.7,0.4,8.4,1.5,12.8c2.6,11.2,8.6,21,17.2,28.8c8.3,7.5,19.3,12.4,30.3,13.6
		c0.9,0.1,1.9,0.2,2.2,0.3c1.3,0.2,9.8-0.1,11.7-0.3c15.8-2.2,29.7-10.8,38.6-23.9c4.7-6.9,7.8-14.8,8.9-22.5
		c0.6-3.8,0.7-5.3,0.7-8.6C111,49.3,110,43.2,108,37.3z M108.9,62.8c-0.7,4.4-1.4,7.3-2.7,10.9c-5.5,15.5-18,27.8-33.4,32.9
		c-5.4,1.8-10.5,2.7-16.3,2.8c-1.7,0-3.4,0-3.8,0c-4.1-0.3-7.6-0.9-9.6-1.4c-5.4-1.4-9.1-2.8-13-4.9C21.8,98.7,15,92.4,9.9,84.3
		c-2.7-4.2-5-9.4-6.3-14.4C1.3,61.6,1,53,2.8,44.5c2.1-10,7.3-19.7,14.5-26.8C26.4,8.5,37.7,3.2,50.5,1.9c1.2-0.1,3.1-0.2,4.9-0.2
		c1.9,0,3.7,0.1,5,0.2c8.3,0.8,15.8,3.3,22.8,7.5c9.4,5.7,16.9,14.1,21.4,24.2c2.1,4.6,3.3,9,4.2,14.9
		C109.5,52,109.5,59.3,108.9,62.8z"/>
	<path class="st0" d="M100.5,44.5L100.5,44.5c-0.1,0-0.1,0-0.1,0.1c0,0.1-0.2,0.2-0.3,0.2c-0.1,0-1.1,0.2-2.2,0.5s-2.1,0.5-2.3,0.5
		c-0.5-0.1-0.5,0.1,0,1.9c0.2,0.8,0.4,1.7,0.4,2c0,0.4,0,0.6,0.1,0.6c0.1,0,0.5-0.2,0.9-0.3c0.6-0.2,0.7-0.2,0.5-0.4
		c-0.2-0.2-0.8-2-0.8-2.5c0-0.2,4.1-1.2,4.3-1c0.2,0.1,0.2-0.1,0.1-0.6C100.8,44.9,100.6,44.5,100.5,44.5z"/>
	<path class="st0" d="M91.2,18.6c-6.6-6.4-14.4-10.7-23.3-13c-4.2-1-8.7-1.6-13-1.5l0,0c-1.4,0-2.9,0.1-4.3,0.2
		c-3.2,0.3-4.2,0.5-7.3,1.2c-8,1.9-15.3,5.7-21.7,11.3c-2.2,1.9-4.8,4.7-6.4,6.7c-3.1,4-5,7.1-6.9,11.6C4.5,44,3.2,54.6,4.8,64.4
		c0.5,3.1,1.8,7.6,3.2,11c3.7,9,10.6,17.4,18.7,22.9c6.9,4.7,15.1,7.7,22.8,8.4c1.1,0.1,2.2,0.2,2.5,0.3c1.1,0.1,8.4-0.1,10.2-0.3
		c5.6-0.7,10.7-2.3,15.9-4.8c7-3.5,12.6-8,17.5-14c5.8-7.2,9.4-15.5,10.8-25c0.5-3.1,0.4-11.3-0.1-14.6
		C104.6,36.8,99.4,26.6,91.2,18.6z M87.6,94.6c-4.9,4-10.7,7.2-16.9,9.2c-1,0.3-2.3,0.7-2.7,0.8c-1.9,0.5-5.2,1.1-6.6,1.2
		c-2.3,0.3-7.4,0.3-9.8,0.2c-12.8-0.9-25.3-7.2-33.8-16.9C10.9,81.3,6.8,72.3,5.4,62C5,59.2,5,51.9,5.4,49.2
		c1.7-11.6,6.5-21.4,14.4-29.3c8-8,17.9-12.8,29.4-14.4c1.3-0.2,3.5-0.3,5.8-0.3c2.3,0,4.6,0.1,5.9,0.2c17.1,2,32,12.4,39.7,27.8
		c3.5,7,5.3,14.6,5.3,22.5C106,70.7,99.3,84.9,87.6,94.6z"/>
	<path class="st0" d="M36.3,66.3c1.2-0.7,1.6-1,1.5-1.1c0,0,0,0-0.1,0c-0.2,0-0.9,0.3-1.6,0.7c-1.2,0.7-9.4,5.4-9.9,5.7
		c-0.1,0-0.1,0.2,0,0.2s0.1,0.2,0.2,0.2c0.1,0,3.3-1.8,6.8-3.9C34.4,67.4,35.8,66.5,36.3,66.3z"/>
	<path class="st0" d="M78.5,68.3c-3.5-2-5.6-3.2-5.7-3.1s0,0.3,0.4,0.5c0.3,0.2,1.4,0.8,2.5,1.4c1,0.6,3.3,1.9,5,2.9
		s3.3,1.8,3.5,1.9c0.3,0,0.3,0,0.1-0.2C84.1,71.6,81.5,70,78.5,68.3z"/>
	<path class="st0" d="M79.7,65c-3.5-1.6-5.4-2.3-5.6-2.3c-0.6,0,0.2,0.4,3.2,1.7c1.7,0.7,3.2,1.3,3.4,1.3
		C81.3,65.8,80.9,65.5,79.7,65z"/>
	<path class="st0" d="M35.3,60.6c0.3-0.1,0.5-0.2,0.5-0.3c0-0.2,0-0.2-0.3-0.2c-0.3,0-0.8,0.2-1.7,0.5c-0.9,0.3-2.9,0.8-4.3,1.2
		c-1.4,0.4-3.5,1-4.6,1.3c-1.2,0.3-2.1,0.7-2.1,0.8c-0.1,0.2,0,0.2,0.3,0.1c2.1-0.6,6-1.6,11.2-3.1C34.5,60.8,35,60.7,35.3,60.6z"/>
	<path class="st0" d="M31,51.6c-1.3-0.2-2.4-0.3-2.9-0.3l0,0c-0.2,0-0.3,0-0.3,0c-0.2,0.2,0.4,0.4,0.9,0.4c0.5,0,3.7,0.4,5.4,0.7
		c1.3,0.2,1.3,0.2,1.3-0.1C35.4,52.1,35.3,52.1,31,51.6z"/>
	<path class="st0" d="M35,55.3c0.1,0,0.2-0.1,0.2-0.2c0-0.1-2.9-0.2-6.8-0.2c-1.1,0-2.1,0-2.9,0c-2.5,0-3.9,0.1-3.9,0.2
		c0,0.1,2.4,0.2,6.6,0.2C31.8,55.3,34.9,55.3,35,55.3z"/>
	<path class="st0" d="M75,60.1c-0.1,0-0.1,0.1-0.1,0.2c0,0.1,1.3,0.6,3.3,1.1c3.4,1,5.1,1.4,7.5,2.2c1.6,0.5,2,0.5,1.9,0.2
		C87.6,63.7,75.6,60.1,75,60.1z"/>
	<path class="st0" d="M78.2,52.3c1.3-0.2,2.8-0.4,3.4-0.5c0.6-0.1,1.1-0.2,1.2-0.3c0.1-0.1,0.1-0.2-0.3-0.2c-0.4,0-1,0.1-1.9,0.2
		c-1.2,0.2-2.7,0.4-3.3,0.5c-1.6,0.2-2,0.3-2,0.5C75.2,52.7,75.6,52.7,78.2,52.3z"/>
	<path class="st0" d="M72.1,33.2c-0.3,0-4.5,5.5-4.6,6c-0.1,0.5,0.3,0.1,2.6-2.8C72.3,33.4,72.5,33.1,72.1,33.2z"/>
	<path class="st0" d="M74.5,36.3c4.3-4.3,5-5.1,4.6-5.1c-0.2,0-9.7,9.5-9.7,9.7C69.4,41.4,70.2,40.6,74.5,36.3z"/>
	<path class="st0" d="M75.1,57.9c0,0,1.1,0.2,2.4,0.4c1.3,0.2,2.7,0.4,3.3,0.4v0c1.4,0.2,2.1,0.2,2.1,0c0-0.1,0-0.2-0.1-0.2
		c0,0-1.7-0.2-3.7-0.5c-2-0.3-3.2-0.4-3.7-0.3h0C75,57.7,75,57.8,75.1,57.9z"/>
	<path class="st0" d="M29.1,58.4c-0.9,0.1-1.3,0.3-1.3,0.4c0,0.3-0.2,0.3,2.6-0.2c1.3-0.2,3.1-0.5,3.8-0.6c0.9-0.1,1.3-0.3,1.3-0.4
		c0-0.1,0-0.2,0-0.2c0,0-1.2,0.2-2.5,0.4C31.6,58,29.9,58.3,29.1,58.4z"/>
	<path class="st0" d="M76,49.4c-0.4,0.1-0.8,0.2-0.9,0.2c-0.1,0-0.2,0.1-0.2,0.2c0,0.3-0.1,0.3,8.1-2c4.3-1.2,5.5-1.6,4.5-1.6
		c-0.2,0-1.6,0.4-3.2,0.8C81.6,47.8,77.4,49,76,49.4z"/>
	<path class="st0" d="M79.5,54.9c-2.5,0-3.9,0.1-3.9,0.2c0,0.1,1.1,0.2,2.6,0.2c6,0.1,10.7,0.1,10.8-0.2c0.1-0.2-1.3-0.2-6.7-0.2
		C81.3,54.9,80.3,54.9,79.5,54.9z"/>
	<path class="st0" d="M60.4,35.7c0.1,0,0.3-0.6,0.5-1.2c0.6-2.2,1.9-6.8,2.1-7.8c0.1-0.5,0.4-1.6,0.7-2.4c0.5-1.7,0.5-1.7,0.2-1.7
		c-0.1,0-0.5,1-0.9,2.5c-0.4,1.4-0.9,3.4-1.2,4.5c-0.9,3.3-1.6,6-1.6,6.1C60.2,35.7,60.3,35.7,60.4,35.7z"/>
	<path class="st0" d="M33.3,71.9c0,0.1,0,0.2,0.1,0.2c0.1,0,5.5-4,5.9-4.4c0.1-0.1,0.2-0.3,0.1-0.3C39.2,67.3,33.5,71.6,33.3,71.9z"
		/>
	<path class="st0" d="M35.6,35.7c2.3,2.3,4.4,4.5,4.7,4.8c0.5,0.5,0.8,0.7,0.8,0.4c0-0.1-1.6-1.9-3.7-4c-2-2.1-4.1-4.3-4.7-4.8
		c-0.6-0.7-1.2-1.1-1.3-1c-0.1,0-0.1,0.1,0,0.2C31.5,31.3,33.4,33.3,35.6,35.7z"/>
	<path class="st0" d="M55.5,55.5c-0.1,0-0.2,0.2-0.3,0.5c-0.1,0.3-0.5,1.1-0.8,1.7s-0.5,1.2-0.4,1.2c0.3,0,0.5-0.4,0.9-1.6
		c0.2-0.7,0.5-1.3,0.6-1.4C55.7,55.7,55.7,55.6,55.5,55.5C55.6,55.5,55.5,55.5,55.5,55.5z"/>
	<path class="st0" d="M41.8,37.9c1,1.3,1.3,1.5,1.3,1.1c0-0.1-0.8-1.2-1.8-2.4s-2-2.5-2.2-2.8c-0.3-0.4-0.6-0.7-0.8-0.6
		c0,0-0.1,0.1-0.1,0.2c0,0.1,0.6,0.8,1.3,1.7C40.3,35.8,41.3,37.1,41.8,37.9z"/>
	<path class="st0" d="M63,36.2c0,0.1,0.1,0.2,0.2,0.2c0.1,0,0.2,0,0.2,0c0,0,0.6-1.6,1.4-3.4c0.8-1.9,1.4-3.4,1.4-3.5c0,0,0,0-0.1,0
		c-0.2,0-0.6,0.7-1.1,2c-0.3,0.7-0.8,2.1-1.2,3C63.3,35.3,63,36.2,63,36.2z"/>
	<path class="st0" d="M77.3,42.4L76.7,42c-0.3-0.2-0.7-0.5-1-0.5c-0.5-0.2-1.2-0.6-1.2-0.8c0-0.1,0.6-0.6,1.4-1.2s1.4-1.2,1.4-1.3
		c0-0.3-0.6,0-1.9,1.1c-1.4,1.2-1.5,1.2-2.1,1.1c-0.4-0.1-0.8-0.1-1-0.2c-0.5-0.1-4.6,3.1-4.6,3.7c0,0.1,0.6,0.5,1.3,0.9l1.3,0.6
		l-0.7,0.1c-0.5,0-1.1-0.1-1.9-0.5c-0.7-0.3-1.3-0.5-1.5-0.5c-0.1,0-0.9-0.6-1.7-1.3c-1.1-1-1.5-1.5-2-2.4c-0.4-0.9-0.6-1.1-1.1-1.3
		c-0.3-0.1-0.7-0.4-1-0.8c-0.3-0.4-0.6-0.6-0.8-0.5c-0.2,0-0.4,0-0.5-0.2c-0.1-0.1-0.4-0.2-0.6-0.2c-0.9,0.2-0.2-0.7,1-1.2
		c0.5-0.2,0.5-0.2,0.2-0.5c-0.6-0.6-0.6-1.3-0.6-6.5c0-2.7-0.3-2.9-0.5-0.3c-0.1,1-0.1,1.9-0.2,1.9c0,0-0.3-0.2-0.5-0.3
		s-0.9-0.4-1.4-0.5l-0.9-0.1v-4.7c0-3.6,0-4.6-0.2-4.6v0c-0.2,0.1-0.2,1.1-0.2,4.4c0,3.4,0,4.2-0.2,3.7c-0.1-0.4-0.4-0.7-0.8-0.9
		l-0.6-0.3l-0.5,0.7c-0.7,0.8-1,0.8-1,0.1c0-0.8-0.2-1.3-0.4-1.3c-0.1,0-0.1,0.4-0.1,1c0.1,1,0.1,1-0.4,1.2
		c-0.5,0.2-0.5,0.2-0.1,0.3c0.5,0.1,0.5,0.4,0,0.4c-0.5,0-0.4,0.3,0.2,0.4c0.5,0.1,0.5,0.1,0.7,2.1c0.2,1.8,0.4,2.3,0.6,2.1
		c0,0,0-1-0.2-2.2c-0.3-2.3-0.2-2.6,0.6-2.5c0.6,0.1,0.7,0.8,0.2,1.5c-0.3,0.4-0.4,0.7-0.3,1.4c0.3,2.5,0.3,2.6,0,2.9
		c-0.4,0.3-0.3,0.6,0.1,1c0.2,0.2,0.3,0.4,0.3,0.4c0,0.1-0.5,0.1-1.2,0.2c-0.6,0-1.2,0.1-1.3,0.2c-0.1,0.1-0.3,0.2-0.5,0.2
		c-0.2,0-0.3-0.2-0.4-1.1c-0.1-0.6-0.1-1.4,0-1.9c0.1-0.4,0-1.2-0.1-1.8c-0.1-0.6-0.3-2.1-0.4-3.4c-0.3-3.4-0.7-6-1-6.8
		c-0.4-0.9-1.3-1.4-2.4-1.3c-1,0.1-1.4,0.7-1.4,1.7c0,1,1.2,5.9,1.4,5.8c0.1,0,0.3-0.3,0.5-0.5c0.5-0.7,0.5-1.7-0.2-3.3
		c-0.6-1.4-0.6-2.2-0.1-2.1c0.4,0.1,1.2,3.3,1.4,5.7c0.1,1.1,0.2,2.5,0.3,3c0.1,0.6,0.1,0.9-0.1,0.9c-0.1,0-0.4,0.2-0.7,0.4L46.8,34
		l-0.3-0.5c-0.1-0.3-0.5-1.2-0.9-2.1c-0.7-1.7-0.9-2-1-1.9c-0.1,0.1,0.6,2.2,1.4,3.9l0.4,1l-0.7,1.3c-0.4,0.7-0.7,1.3-0.7,1.3
		c-0.1,0-4.2-7.3-5.7-10.1c-0.6-1.1-0.9-1.4-0.9-0.9c0,0.2,3.8,7.2,5.9,10.9l0.4,0.7l-0.4,0.9c-0.2,0.5-0.5,1.5-0.6,2.2
		c-0.2,1.1-0.1,1.3,0.2,2.2c0.4,1.2,1.3,2.1,1.9,2.1c0.2,0,0.8,0.2,1.2,0.4c0.5,0.3,0.9,0.3,1.4,0.3l0.7-0.1l0.2,2.5
		c0.1,1.4,0.3,2.8,0.4,3.2c0.3,1.3,0.2,1.8-0.9,4.8c-0.7,1.8-1.1,3.1-1.1,3.6c0,0.7-0.8,3.2-1.4,4.4c-0.2,0.4-0.6,1.1-1,1.5
		c-0.4,0.5-0.7,1-0.7,1.1c-0.5,1.8-1.3,3.9-1.6,4.6c-0.3,0.4-0.9,1.4-1.5,2.1c-1.2,1.5-1.6,2.4-1.3,3.1c0.2,0.4,0.3,0.5,1,0.4
		c1.3-0.1,2.3-1.1,3.5-3.4c0.3-0.6,0.9-1.4,1.3-1.9c1.2-1.3,2.3-3.1,2.6-4.2c0.3-1,1.9-3.7,2.2-3.7c0.1,0,0.3,0.7,0.5,3.4
		c0.1,0.9,0.2,2,0.3,2.4l0.1,0.6h-1.5c-0.9,0-1.7,0.1-2,0.2c-0.8,0.3-1.6,1.3-2.7,3.3c-1.2,2.1-2.5,3.6-3.5,3.8
		c-0.9,0.2-1.7,0-2.1-0.7c-0.5-1.1-0.2-2,1.4-3.9c1.7-2,1.8-2.8,0.4-2.3c-1.1,0.4-2.1,1.1-4.4,3.3c-2.3,2.1-3.9,3.2-6.4,4.3
		c-2.1,0.9-2.2,1-1.7,1.7c0.9,1.3,4.9,4.7,7.5,6.3c1.4,0.9,4.9,2.6,6.6,3.2c2.8,1,6.5,1.9,9.5,2.1c0.4,0,1,0.1,1.4,0.1l0.7,0
		l0.2-2.6c0.3-3.5,0.7-6.3,1.1-7.6c0.6-2,0.2-2.3-1.9-1.6c-2,0.6-2.6,1.4-3.6,4.6c-0.3,0.9-0.8,2.1-1.2,2.7
		c-0.7,1.1-1.9,2.1-2.2,1.9c-0.2-0.2,0.3-2.8,0.9-4.3c0.3-0.7,0.5-1.6,0.5-2.6l0.1-1.5L48,80.2c-0.6-0.2-2.3,0-3.4,0.5
		c-1.2,0.5-2.6,1-2.6,1c-0.1-0.1,1.5-1.3,2.5-1.9c0.9-0.5,1.6-0.7,7.4-1.5c1.4-0.2,2.9-0.5,3.3-0.6c0.9-0.3,2.7-0.4,4.6-0.1
		c1.7,0.2,2,0.5,0.7,0.5c-2.2,0-2.5,0.7-2.3,6.4c0.1,2.1-0.1,2.8-1.4,5.3c-0.4,0.8-0.7,1.5-0.7,1.6c0.1,0.1,4.8-0.3,6.3-0.6l1.4-0.3
		l0.6-1.2c0.3-0.7,0.8-1.5,1-1.9c0.3-0.6,0.4-1,0.4-2.6c0-1,0.1-2.4,0.2-3s0.2-1.7,0.2-2.4c0-1.2,0-1.3,0.5-1.6
		c0.3-0.2,0.8-0.4,1.2-0.6c0.6-0.2,0.7-0.2,0.9,0c0.3,0.5,0.2,2.7-0.3,4.4c-0.2,0.9-0.5,2-0.5,2.3c-0.1,0.6,0.5,2.6,1.1,3.8l0.5,0.9
		l0.9-0.4l0.9-0.4l-0.7-0.6c-0.4-0.3-0.7-0.6-0.7-0.7c0-0.2,1.8-2.2,2.2-2.4c0.2-0.1,0.8-0.2,1.3-0.3c0.6-0.1,1.2-0.2,1.5-0.2
		c0.4-0.1,0.5,0,0.8,0.5c0.2,0.3,0.5,0.6,0.6,0.6c0.3,0,2.9-2.1,2.9-2.4c0-0.1-0.5-0.4-1.1-0.6c-1.4-0.6-2.4-1.5-2.9-2.4
		c-0.3-0.6-0.3-1-0.3-4.4c0-3.3,0-3.8-0.3-4.3c-0.4-0.8-1.3-1.6-2-1.9c-1-0.4-2.9-0.9-4.2-1c-1-0.1-1.2-0.1-1.5,0.3
		c-0.7,0.8-0.9,2.6-0.4,3.2c0.2,0.3,0.6,0.4,1.7,0.5c1.6,0.2,2,0.5,2,1.4c0,0.6-0.6,1.3-1.2,1.5c-0.2,0-1.7,0-3.3-0.1
		c-2.5-0.1-2.8-0.2-3.1-0.5c-0.3-0.3-0.3-0.9,0.1-4.1c0.1-1.4-0.2-2.3-0.9-2.5c-0.6-0.1-1.7,0.2-4,1.3c-0.9,0.4-2.4,0.9-3.1,1.2
		c-1.1,0.3-1.4,0.4-1.4,0.6c0.4,1.4,0.2,2.8-0.4,2.8c-0.2,0-0.2,0-0.1-0.2c0.1-0.2,0.2-0.9,0-2.5c-0.4-5.6-0.6-9.5-0.4-9.7
		c0.1-0.2,1.1-0.3,4-0.3c2.4,0,4.2-0.2,4.7-0.3c0.9-0.2,0.9-0.2,1.6,0.2c0.4,0.3,0.7,0.6,0.7,0.8c0,0.2-0.2,0.8-0.5,1.3
		c-0.6,1.2-0.7,2.2-0.1,5.2c0.4,2.1,0.4,2.8-0.1,5.5c0,0.3,0.1,0.3,0.7,0.4c0.4,0,1.8,0.2,3,0.3c2.1,0.3,2.3,0.3,2.7,0
		c0.2-0.2,0.4-0.4,0.4-0.5c0-0.5-1.4-1.2-3.4-1.6c-0.7-0.1-0.7-0.2-0.7-0.9c0-0.5,0.1-1.3,0.4-2.1c0.5-1.7,0.9-3.3,1.3-6.1
		c0.3-2,0.3-2.2,0-3.5l-0.3-1.3l-1.7-1.5c-2.9-2.7-5-6-5.2-8.3l-0.1-1.3l0.9,0.3c0.6,0.2,1.6,0.4,2.8,0.4c1,0.1,2.7,0.2,3.6,0.3
		c1.9,0.2,2.6,0.1,4.3-0.6l0.9-0.4l1,0.5c0.6,0.3,1.3,0.7,1.6,0.8l0.6,0.3l1.6-1.6c2.1-2.1,2.6-2.9,1.8-3.2
		c-0.2-0.1-0.3-0.3-0.3-0.4c0-0.2-0.2-0.4-0.5-0.4c-0.3-0.1-0.5-0.2-0.5-0.3s1.2-0.9,2.6-1.7c3.9-2.4,3.9-2.4,3.8-2.6
		c-0.1-0.2-0.4-0.1-4.1,2.2L77.3,42.4z M59.1,36.3C59.1,36.3,59.1,36.3,59.1,36.3L59.1,36.3c0.1,0,0.1,0,0.1,0
		c0.1,0.1,0.2,0.1,0.2,0.2s-0.1,0.1-0.2,0.1S59,36.5,59,36.4C59,36.4,59,36.3,59.1,36.3z M70.4,79.6c-0.2-0.9-0.2-1.1,0.1-2
		c0.2-0.5,0.2-1.2,0.2-1.5c-0.1-0.4-0.1-0.5,0.3-0.6c0.2,0,0.9-0.3,1.5-0.4l1.1-0.3v0l-0.1,1.2c-0.1,0.6-0.2,1.7-0.2,2.3
		c-0.1,0.9,0,1.5,0.2,2.3c0.2,0.6,0.3,1.2,0.2,1.3c0,0.1-0.5,0.4-1,0.5c-0.5,0.2-1.2,0.5-1.5,0.7c-0.7,0.5-0.9,0.6-0.8,0.1
		C70.6,82.2,70.6,80.6,70.4,79.6z M70.7,41.8c1-0.7,1.3-1,1.6-1l0,0c0.1,0,0.3,0,0.4,0c1.3,0.2,1.8,0.3,1.9,0.6
		c0.1,0.2-1,1.3-2.4,2.5c-0.6,0.5-0.8,0.5-1.3,0.1c-0.2-0.2-0.7-0.5-1.1-0.6c-0.4-0.2-0.6-0.4-0.6-0.5
		C69.3,42.9,69.9,42.4,70.7,41.8z M69.1,43.8c0.8,0,1,0.1,1.5,0.5c0.7,0.6,0.7,0.7-0.1,0.2c-0.3-0.2-0.8-0.4-1.3-0.4
		C68,44,67.9,43.8,69.1,43.8z M60.3,39.4L60.3,39.4L60.3,39.4L60.3,39.4c0.2,0,0.2,1.1,0,1.3c-0.1,0.1-0.3,0.6-0.5,1.2
		c-0.6,1.8-1,1.3-0.4-0.6C59.6,40.2,60,39.4,60.3,39.4z M58.1,50.2c-0.8,0.1-1,0.1-1-0.2c0-0.2,0.6-0.4,1.3-0.5c0.3,0,0.5,0,0.8,0
		c0.7,0.1,0.7,0.1,0.3,0.3C59.3,50,58.7,50.1,58.1,50.2z M58.5,54.6c-0.1,0.1-0.3,0.2-0.4,0.2c-0.1,0-0.1-0.9-0.1-1.9
		c0-1.7,0-2,0.5-2.1c0.1,0,0.1,0,0.2,0C59,50.8,58.8,54.4,58.5,54.6z M56,50.3c-0.9,0.2-4.4-0.7-4-1c0,0,0.1,0,0.2,0l0,0
		c0.3,0,0.8,0.1,1.4,0.2c0.8,0.1,1.9,0.3,2.4,0.3c0.6,0,0.8,0.1,0.8,0.3c0,0.1-0.1,0.3-0.2,0.3C56.4,50.2,56.2,50.3,56,50.3z
		 M56.3,54c-0.1,0.6-0.2,0.7-0.4,0.7c-0.5,0-0.5-0.2-0.5-2.1c0-1.4,0.1-1.6,0.3-1.6c0,0,0.1,0,0.1,0c0.4,0,0.4,0.1,0.5,1.1
		C56.4,52.7,56.4,53.6,56.3,54z M54.9,54.5c0,0.1-0.1,0.1-0.2,0.2c-0.5,0.1-0.7-0.4-0.7-1.5c0-1.6,0.1-2.2,0.5-2.2
		c0.3,0,0.3,0.1,0.3,1.7C54.9,53.6,54.9,54.4,54.9,54.5z M51.8,50.5c0.1-0.1,0.2-0.2,0.3-0.2h0c0,0,0,0,0.1,0c0.1,0,0.1,0.3,0,0.7
		c-0.1,0.3-0.3,0.6-0.4,0.6C51.5,51.7,51.6,50.8,51.8,50.5z M51.4,49.8c0-0.1,0-0.2,0.1-0.2c0,0,0,0,0.1,0c0.1,0.1,0.1,0.2,0.1,0.3
		C51.5,50.1,51.4,50.1,51.4,49.8z M55.9,46c0.4,0,0.7,0,0.8,0.2c0,0.1-0.3,0.2-0.8,0.2c-0.6,0-0.8,0-0.8-0.2
		C55.1,46.1,55.5,46,55.9,46z M55.6,45.1c0.1-0.1,0.4-0.3,0.7-0.3c0.3,0,0.5,0.1,0.5,0.3c0,0.2-0.2,0.3-0.7,0.3
		C55.5,45.4,55.4,45.4,55.6,45.1z M55.2,46.9c0.3,0,0.5-0.1,0.7-0.1c0.1,0,0.3,0,0.4,0l0,0c0.3,0,0.3,0.1,0.3,0.3
		c0,0.2-0.2,0.3-1.1,0.3C54.2,47.3,54,47,55.2,46.9z M55.3,47.6c1.3,0,1.3,0,1.3,0.4c0,0.3-0.1,0.4-0.4,0.4c-0.7,0-2.6-0.3-2.7-0.4
		C53.3,47.8,54.1,47.6,55.3,47.6z M54,48.6c0.2,0,0.5,0,0.8,0c1.7,0.1,2.1,0.2,1.9,0.6c-0.1,0.2-1.4,0.2-2.8,0
		c-1.6-0.2-1.6-0.6-0.4-0.6C53.6,48.6,53.8,48.6,54,48.6z M56.8,50.9h0.4h0.4l0,1.9c0,1.5-0.1,1.8-0.3,1.9c-0.5,0.1-0.5-0.1-0.5-2
		V50.9z M59.3,45.7c0.7,0,0.8,0.3,0.1,0.4c-1.5,0.3-2.3,0.3-2.3,0.1C57.1,46,58.1,45.7,59.3,45.7z M57.1,45.1c0-0.3,0-0.4,0.6-0.4
		c0.2,0,0.4,0,0.8,0c1.3,0,1.7,0.2,1.1,0.5c-0.2,0.1-0.8,0.2-1.4,0.2C57.1,45.5,57.1,45.5,57.1,45.1z M58.3,46.7
		c0.3,0,0.6,0,0.8-0.1l0,0c0.6,0,0.8,0.1,0.5,0.3c-0.1,0.1-0.7,0.2-1.3,0.3c-0.9,0.1-1.2,0.1-1.2-0.1C57.1,46.9,57.5,46.8,58.3,46.7
		z M58.5,47.5c0.3,0,0.5,0,0.7-0.1v0c0.5,0,0.6,0,0.6,0.2c0,0.2-0.2,0.4-0.4,0.4c-0.6,0.2-2.1,0.2-2.2,0
		C56.8,47.8,57.2,47.7,58.5,47.5z M59.3,49.2c-0.3,0-0.9,0.1-1.4,0.1c-0.7,0.1-0.8,0.1-0.8-0.2c0-0.4,0.1-0.4,1.5-0.6
		c0.3,0,0.5-0.1,0.7-0.1c0.5,0,0.5,0,0.5,0.3C59.9,49.1,59.8,49.2,59.3,49.2z M59.5,44.3c-0.3,0.1-1,0.1-1.5,0.1c-1,0-1,0-1-0.4
		c0-0.3,0.3-0.6,0.8-0.6l0,0c0.2,0,0.3,0,0.5,0.1c0.3,0,0.8,0.1,1.2,0.2C60.2,43.7,60.3,44.1,59.5,44.3z M57.6,42.3l0.2-0.4v0.6
		c0,0.3-0.1,0.6-0.2,0.6C57.4,43,57.3,42.7,57.6,42.3z M59.1,39.3c0.2-0.2,0.4-0.4,0.5-0.4c0.3,0,0.3,0-0.1,0.9
		c-0.2,0.4-0.5,1.3-0.7,1.9c-0.3,1.3-0.7,1.7-0.7,0.8C58.2,41.7,58.7,39.8,59.1,39.3z M58.6,38.5c0.1,0,0.1,0.1,0.1,0.3
		c0,0.7-1.9,4.2-3,5.4c-0.1,0.2-0.3,0.4-0.3,0.5c0,0.5-2.7,3.7-3.5,4.1c-1,0.5-0.9,0.3,0.6-1.2c1.5-1.5,3.4-4.3,4.7-7.1
		C57.9,39.1,58.4,38.4,58.6,38.5z M55.1,43.6c0,0.1-0.1,0.3-0.2,0.4s-0.3,0.3-0.4,0.3c-0.1,0-0.8-0.1-1.5-0.1
		c-1.1-0.1-1.4-0.1-1.4-0.4c0-0.2,0.1-0.3,0.8-0.3c0.2,0,0.6,0,1,0C54.2,43.5,55.1,43.6,55.1,43.6z M55,41.4
		c-0.2-0.8-0.4-1.5-0.4-1.6c0-0.1,0-0.1,0.1-0.1s0.2,0.1,0.4,0.2c0.3,0.2,0.8,0.2,1.3,0.2c0.4,0,0.8,0,0.8,0c0,0-0.3,0.7-0.7,1.4
		c-0.4,0.8-0.8,1.4-0.9,1.4C55.4,42.8,55.2,42.2,55,41.4z M51.5,44.9c0-0.2,0.2-0.3,0.7-0.3c0.2,0,0.4,0,0.7,0
		c1.5,0.1,1.5,0.1,1.4,0.4c-0.1,0.1-0.7,0.2-1.5,0.2C51.6,45.2,51.4,45.2,51.5,44.9z M51.7,47c-0.3-0.3-0.1-0.4,0.6-0.4
		c0.6,0,0.7,0,0.5,0.3C52.6,47.1,51.9,47.2,51.7,47z M52,47.6c-0.1,0.1-0.2,0.2-0.3,0.2c-0.1,0-0.2-0.1-0.2-0.2s0.1-0.2,0.3-0.2
		S52.1,47.5,52,47.6z M51.5,46.1c-0.2-0.4,0.1-0.5,1.2-0.5c1,0,1.1,0,0.9,0.3C53.3,46.1,51.7,46.4,51.5,46.1z M58.7,35.6
		c-0.1,0.1-0.1,0.5-0.2,0.9c-0.1,0.5-0.2,0.7-0.6,0.8c-0.5,0.1-0.7,0.5-0.3,1.1c0.1,0.3,0.1,0.4-0.3,0.8c-0.6,0.6-1.6,0.7-2.2,0.3
		c-0.5-0.4-1-1.6-0.7-2c0.2-0.3,0.2-0.3,0.9,0c0.9,0.4,1.5,0.3,1.4-0.3c-0.1-0.2-0.3-0.7-0.5-1.2c-0.5-1.1-0.5-1.6,0.1-1.9
		c0.5-0.2,1.2-0.3,1.7-0.3l0,0c0.3,0,0.6,0.1,0.6,0.2c0.3,0.4-0.4,0.7-1.3,0.6c-0.5-0.1-0.8,0-0.9,0.1c-0.1,0.1,0,0.2,0.2,0.2
		c0.2,0,0.4,0.1,0.4,0.1c0.1,0.1,0.3,0.1,0.5,0.1c0.2,0,0.4,0.1,0.4,0.3c0,0.2,0,0.3-0.2,0.3c-0.1,0-0.3,0.1-0.4,0.2
		c-0.1,0.1,0.1,0.2,0.4,0.2c0.5,0,0.5,0,0.4-0.5c-0.1-0.3,0-0.5,0.1-0.6C58.6,34.8,58.9,35.2,58.7,35.6z M54.6,35.5
		c0.1-0.3,0.2-0.5,0.4-0.5c0.1,0,0.3,0.1,0.4,0.3c0.1,0.2,0.3,0.8,0.5,1.2l0.4,0.8h-0.4C55.1,37.3,54.4,36.3,54.6,35.5z M58.9,33.1
		c0,0.4-0.1,0.4-1,0.4c-0.6,0-1.3,0.1-1.7,0.3c-0.8,0.4-1,0.4-1.1,0.2c-0.2-0.4,1.7-1.3,2.8-1.4c0.2,0,0.4,0,0.6,0
		C58.8,32.6,58.9,32.7,58.9,33.1z M54.8,30.6c0.1,0.4-0.6,0.5-0.8,0.2c-0.1-0.2,0.2-0.5,0.4-0.5v0c0,0,0.1,0,0.1,0
		C54.7,30.3,54.8,30.4,54.8,30.6z M53.4,29.9c-0.5-0.1-0.5-0.3,0.1-0.5c0.3-0.1,0.5-0.2,0.4-0.4c-0.1-0.1,0-0.2,0-0.2
		c0.1,0,0.3,0.1,0.4,0.3c0.1,0.2,0.2,0.4,0.1,0.4C54.3,29.8,53.7,30,53.4,29.9z M53.7,32.2C54,31.5,55,31,56,31
		c0.6,0,1.2,0.1,1.6,0.4c0.7,0.5,0.7,0.6,0.1,0.8c-0.9,0.2-1.7,0.5-2.3,0.9c-0.6,0.4-1.6,0.6-1.8,0.4C53.4,33.4,53.5,32.7,53.7,32.2
		z M53.5,37c-0.2-0.2-0.2-0.3,0.1-0.9c0.2-0.3,0.3-0.7,0.3-0.8S54,35,54.1,35v0c0.2,0,0.2,0.2,0.2,0.9c-0.1,0.5-0.1,1-0.2,1.1
		C54,37.4,53.8,37.3,53.5,37z M53.1,38.2c0.2,0,0.8,1.4,1.3,3.2c0.3,1.1,0.4,1.6,0.3,1.7c-0.1,0.1-0.2,0-0.3-0.3
		c-0.3-1.4-0.9-3.2-1.2-3.7C52.9,38.3,52.9,38.2,53.1,38.2z M52.1,38.2c0,0,0.1,0,0.1,0c0.1,0,0.4,0.3,0.6,0.6
		c0.4,0.9,1.2,3.4,1.2,3.9c0,0.8-0.3,0.4-0.7-0.9c-0.2-0.7-0.6-1.8-0.9-2.4C52,38.5,51.9,38.2,52.1,38.2z M51,38.3
		C51.1,38.3,51.1,38.3,51,38.3c0.3,0,0.5,0.3,0.8,0.7c0.4,0.8,1.4,3.5,1.4,3.9c0,0.1-0.1,0.2-0.2,0.2c-0.1,0-0.4-0.4-0.5-0.9
		c-0.2-0.5-0.5-1.5-0.9-2.2c-0.3-0.7-0.6-1.4-0.6-1.6C50.9,38.4,51,38.3,51,38.3z M50.4,38.8c0.3,0,1.7,3.4,1.7,4
		c0,0.6-0.3,0.3-0.6-0.5c-0.2-0.5-0.5-1.4-0.8-2C50.2,39.1,50.1,38.8,50.4,38.8z M50.8,44.1C50.9,44.1,50.9,44.1,50.8,44.1
		c0.2,0.1,0.2,0.2,0.2,0.3c0,0.1-0.1,0.3-0.2,0.3c-0.1,0.1-0.2-0.1-0.2-0.3C50.7,44.3,50.8,44.1,50.8,44.1z M50.6,42.2v-0.9l0.3,0.6
		c0.1,0.3,0.2,0.7,0.1,0.9C50.8,43.5,50.6,43.2,50.6,42.2z M50.9,46.1L50.9,46.1L50.9,46.1L50.9,46.1c0,0,0.1,0,0.2,0.2
		c0.1,0.2,0.1,0.6,0.1,1l-0.1,0.7L51,47.5c-0.1-0.3-0.1-0.8-0.1-1C50.9,46.3,50.9,46.2,50.9,46.1z M47.9,26.8
		c-0.1-1-0.2-2.1-0.2-2.4c0.1-0.7-0.3-1.2-1.2-1.4c-0.6-0.1-0.7-0.1-0.8,0.3c-0.2,0.4-0.1,0.7,0.3,1.9c0.5,1.4,0.7,2.5,0.4,3.1
		c-0.2,0.6-0.4,0.2-0.9-2c-0.6-2.4-0.6-3,0.1-3.6c0.4-0.3,0.7-0.5,1-0.5c0.2,0,0.4,0.1,0.6,0.2c1.1,0.5,1.4,1.9,1.7,6.2
		c0.1,1.4,0.2,3,0.3,3.4c0.1,0.7,0.1,0.8-0.3,0.8c-0.2,0-0.4,0-0.4-0.1C48.7,32.6,48.2,28.8,47.9,26.8z M47.6,44.9
		c-0.3,0.2-0.5,0-0.4-0.3c0.1-0.1,0.2-0.2,0.4-0.2c0.1,0,0.2,0.1,0.2,0.2C47.8,44.6,47.7,44.8,47.6,44.9z M47,43.7
		c-1.3,1-1.8,0.8-2.4-0.7c-0.6-1.7-0.3-3.1,1.4-6.5c1.2-2.4,1.6-2.9,2.5-3h0c0.1,0,0.3,0,0.4,0c0.6,0,0.6,0.1,0.7,0.8
		c0.1,0.4,0.1,0.8,0,0.9s-0.7,0.5-1.4,0.9c-0.7,0.3-1.4,0.7-1.4,0.8c-0.2,0.2-0.2,2.5,0,3.4c0.1,0.4,0.2,0.6,0.3,0.6
		c0.3,0,0.4,0.1,0.5,1.2l0.1,1L47,43.7z M48.1,39.4c-0.8,0.8-1.1,0.4-1-1.5c0-1,0.1-1.1,0.5-1.3c0.1,0,0.3-0.1,0.4-0.1
		c0.1,0,0.2,0,0.2,0c0.1,0.1,0.2,0.6,0.2,1.2C48.5,38.9,48.5,39.1,48.1,39.4z M49.1,44.9c0,0.1-0.3,0.1-0.5,0.1
		c-0.4,0-0.4,0-0.3-0.6c0.2-1,0.1-2.4-0.2-3.1c-0.3-0.7-0.3-1,0-1.4c0.1-0.1,0.2-0.2,0.2-0.2v0c0.1,0,0.1,0,0.2,0.1
		C48.7,40,49.2,44.7,49.1,44.9z M49.4,55.2l0.5-1l0.1,0.8c0.1,0.4,0.2,1.7,0.3,2.8l0.1,2l-0.4,0c-0.7,0-1.5-0.3-1.7-0.7
		C48.1,58.7,48.6,57,49.4,55.2z M43.2,71.6c0.1-0.1,0.2-0.2,0.3-0.2c0.1,0,0.1,0.1,0.1,0.2c-0.1,0.1-0.2,0.2-0.3,0.2
		C43.2,71.8,43.2,71.7,43.2,71.6z M42.8,75.4c-0.2,0.2-0.6,0.5-0.9,0.7c-0.6,0.3-1.1,0.3-1.3,0.1c-0.2-0.3,0.1-1,0.5-1.6l0.3-0.5
		l0.9,0.5l0.9,0.5L42.8,75.4z M43.9,73.7c-0.3,0.5-0.5,0.8-0.6,0.8c-0.3,0-1.3-0.6-1.4-0.9c-0.2-0.4,0.4-1.1,1.2-1.4
		c0.1,0,0.3-0.1,0.4-0.1c0.1,0,0.1,0,0.2,0v0c0.2,0,0.3,0.1,0.4,0.3C44.3,72.9,44.3,72.9,43.9,73.7z M44.7,72.3
		c-0.1,0-0.2-0.1-0.2-0.2c0-0.1,0.1-0.2,0.2-0.2c0.1,0,0.2,0.1,0.2,0.2C44.9,72.2,44.8,72.3,44.7,72.3z M45.4,71.3
		c-0.2,0.1-0.6,0.2-0.9,0.3c-0.5,0.1-0.6,0.1-0.7-0.3c-0.1-0.5-0.1-0.8,0.2-0.8c0.2,0,0.4,0.1,0.7,0.2C45.8,71,45.8,71.1,45.4,71.3z
		 M46.8,69.7c-0.6,0.8-0.8,0.8-1.8,0.5c-0.7-0.2-0.8-0.3-0.6-1.3c0.2-0.9,0.3-1.2,0.6-1.2c0.2,0,0.5,0.1,1,0.3
		c0.7,0.2,1.2,0.6,1.2,0.7S47,69.3,46.8,69.7z M49.9,63.9c-0.5,0.7-1.1,1.9-1.5,2.7c-0.5,1.2-0.7,1.4-1.1,1.4
		c-0.6,0-1.8-0.4-2.2-0.8c-0.3-0.3-0.3-0.4,0-0.8c0.8-1,2.3-4,2.6-5.1c0.2-0.7,0.4-1.3,0.5-1.3c0,0,0.1,0,0.1,0
		c0.4,0,1.8,0.3,2.1,0.6c0.1,0.1,0.2,0.6,0.2,1.2C50.8,62.5,50.7,62.6,49.9,63.9z M51.6,71.4c0-0.5,0-0.7,0.1-0.7h0
		c0,0,0.1,0.1,0.1,0.2c0.1,0.2,0.1,0.6,0.1,0.9C51.8,72.7,51.6,72.4,51.6,71.4z M52.1,72.9c-0.1,0.1-0.3-0.1-0.3-0.3
		c0-0.1,0-0.1,0.1-0.1c0,0,0.1,0,0.1,0.1C52.1,72.7,52.1,72.9,52.1,72.9z M52.4,71.5c-0.3-0.5-0.8-4.2-1.3-10.8
		c-0.1-1-0.3-2.8-0.4-3.8c-0.1-1-0.3-2.8-0.4-4s-0.2-3.2-0.3-4.5c-0.1-1.3-0.3-3.1-0.3-4c-0.1-0.9-0.3-2.6-0.4-3.9
		c-0.6-4.4-0.6-4.1-0.2-4.4l0.4-0.3l0.3,3.4c0.4,5.1,0.6,7,1.1,10.8c0.5,4.1,0.8,7.1,1.4,14.4C52.6,69.9,52.7,72,52.4,71.5z
		 M67.6,72.6c0.3-0.1,1.8,0.6,1.8,0.8c0,0.1-0.3,0.2-0.5,0.2c-0.7,0.1-1.8,0.1-1.9,0C66.8,73.5,67.3,72.7,67.6,72.6z M66,72.2
		c0.9,0.2,0.9,0.3,0.5,0.8c-0.2,0.3-0.4,0.4-1.1,0.4c-1.8-0.1-1.9-0.1-1.9-0.8c0-0.5,0.1-0.7,0.7-1.3c0.4-0.4,0.8-0.7,0.9-0.7
		c0.1,0,0.1,0.3,0.1,0.7C65.2,71.9,65.3,71.9,66,72.2z M63.7,69.9c0-0.9,0-0.9,0.5-1c0.2,0,0.3,0,0.5,0v0c0.5,0,0.8,0.2,0.8,0.4
		c0,0.1-0.3,0.5-0.7,0.9C63.9,71,63.7,71,63.7,69.9z M66.4,65.7c0,0.3-0.1,1.1-0.3,1.7l-0.3,1.1L65,68.5c-1,0.1-1.4-0.2-1.5-0.9
		c0-0.2-0.1-0.8-0.1-1.4c-0.1-0.5-0.1-1,0-1.1c0,0,0.2-0.1,0.5-0.1h0c0.3,0,0.7,0,1.1,0l1.5,0.1L66.4,65.7z M66.7,58.3
		c0.5,0.7,0.6,1.6,0.3,3.4c-0.2,0.9-0.3,1.9-0.3,2.2c0,0.2-0.1,0.5-0.2,0.7c-0.1,0.1-0.3,0.2-0.3,0.2s-0.2,0-0.3-0.1
		s-0.8-0.1-1.4-0.2c-1.1-0.1-1.2-0.1-1.2-0.6c0-0.2,0.2-1,0.5-1.6l0.5-1.2l-0.5-0.4c-0.3-0.2-0.5-0.5-0.5-0.6s0.4-0.4,0.9-0.6
		c0.5-0.2,1.2-0.6,1.6-0.9c0.3-0.2,0.5-0.4,0.6-0.4C66.5,58.1,66.6,58.1,66.7,58.3z M61.9,52.5c0.9,1.5,1.8,2.5,2.8,3.5l1.4,1.4
		l-0.9,0.7c-0.5,0.4-1.4,0.9-2.1,1.2c-1.3,0.6-4.8,1.2-5,0.9c-0.1-0.1-0.3-0.7-0.4-1.4c-0.1-0.7-0.3-1.4-0.4-1.6
		c-0.1-0.2,0.1-0.1,0.4,0.3c0.6,0.8,1.9,1.6,2.1,1.5c0.1-0.1-0.3-0.5-0.8-1c-0.5-0.5-1.2-1.3-1.4-1.7c-0.3-0.5-0.5-0.8-0.6-0.7
		c-0.1,0.1,0.1,3,0.3,4.3c0.1,0.6,0.4,0.6-3,0.4c-1.4,0-1.6-0.1-1.8-0.4c-0.1-0.2-0.3-1.7-0.4-3.3l-0.3-2.9l0.4-1.4
		c0.5-1.4,0.8-1.8,1.2-1.7c0.2,0.1,0.3,0.4,0.2,1.8c0,1.8,0.2,2.6,0.8,2.7c0.2,0,1.3,0.1,2.4,0.1l2.1-0.1l0.1-0.6
		c0.1-0.3,0.2-1.1,0.2-1.8l0.1-1.2l0.7,1.4c0.9,1.7,1.4,2.4,2,2.8c0.9,0.6,0.9,0.3,0.1-0.7c-1.5-1.6-2.1-2.6-2.3-3.9
		c-0.1-0.5,0-0.6,0.2-0.6h0C60.4,50.4,60.9,51.1,61.9,52.5z M59.7,43c0-0.3,0.7-2.2,1.1-2.6c0.1-0.2,0.2-0.3,0.3-0.4c0,0,0,0,0.1,0
		l0,0c0.1,0,0.1,0.1,0.3,0.1c0.4,0.3,0.4,0.5-0.1,1c-0.2,0.2-0.6,0.8-0.9,1.2C60.1,43.1,59.7,43.4,59.7,43z M60.8,46.6
		c-0.4-0.2-0.5-0.4-0.4-2.5c0-1,0.6-2.2,1.3-2.7c0.1-0.1,0.2-0.2,0.3-0.2c0.1,0,0.2,0.1,0.3,0.4c0.1,0.3,0.5,0.7,0.8,1.1l0.6,0.6
		L63,43.7c-0.7,0.4-1.6,2-1.6,2.7C61.4,46.8,61.4,46.8,60.8,46.6z M62.4,47c-0.5,0-0.7-0.4-0.5-0.8c0-0.1,0.1-0.2,0.1-0.2
		c0.1,0,0.1,0,0.2,0.1c0.1,0.1,0.4,0.4,0.4,0.5C62.8,46.9,62.8,47,62.4,47z M71.1,47.2c-1.2,0.4-2.9,0.5-4.2,0.2
		c-0.4-0.1-1-0.1-1.4-0.2c-0.9,0-1.8-0.4-2.5-1.2c-0.7-0.8-0.7-1.1,0-1.9c0.4-0.4,0.7-0.6,1-0.6c0.3,0,0.6,0.2,1,0.6
		c0.4,0.5,0.7,0.6,1.2,0.6c0.3,0,1.1,0.2,1.7,0.6c1,0.5,1.2,0.5,2.1,0.4c0.8-0.1,1.2,0,1.8,0.3c0.4,0.2,0.7,0.4,0.7,0.5
		C72.2,46.8,71.7,47,71.1,47.2z M72.5,46.3c-0.8-0.5-1.9-1-2.6-1.3c-0.9-0.4-1.2-0.6-0.8-0.6c0.1,0,0.3,0,0.6,0.1
		c0.3,0.1,0.7,0.3,0.9,0.4c0.2,0.2,0.5,0.3,0.8,0.3c0.3,0,0.7,0.1,0.9,0.2c0.5,0.2,1.8,1.3,1.8,1.6C74.2,47.2,73.9,47.1,72.5,46.3z
		 M73.9,46.2c-0.4-0.4-0.9-0.8-1-0.8s-0.2-0.1-0.2-0.2c0,0,0,0,0.1,0h0c0.3,0,1.6,0.9,1.9,1.4C75,47.2,74.7,47,73.9,46.2z M79,44.6
		c0.1,0-0.4,0.7-1.4,1.8c-0.9,0.9-1.7,1.7-1.9,1.7c-0.2,0,0-0.3,0.6-0.9c0.5-0.5,1.2-1.3,1.6-1.7C78.5,44.9,78.9,44.5,79,44.6z
		 M78.8,43.9c0.1,0.1-0.6,0.9-1.5,1.8c-0.9,0.9-1.7,1.7-1.8,1.7c-0.1,0,0.5-0.8,1.5-1.8S78.7,43.8,78.8,43.9z M78.4,43.3
		c0.1,0.1-0.6,0.9-1.5,1.8c-0.9,0.9-1.6,1.6-1.7,1.6c-0.1,0-0.5-0.4-1-0.9c-0.5-0.5-1.2-0.9-1.6-1.1l-0.7-0.2l1.4-1.3
		c1.1-1,1.7-1.5,2.1-1.5c0.3,0,0.5,0.1,0.9,0.3c0.4,0.3,0.7,0.5,0.7,0.6c0,0.1,0.3,0.2,0.7,0.3S78.4,43.2,78.4,43.3z"/>
	<path class="st0" d="M65.8,37.2c0.3-0.6,5.5-9.4,6-10.3c0.6-0.9,0.6-1,0.3-1c-0.1,0-0.7,0.8-1.2,1.8c-0.6,1-1.1,2-1.3,2.2
		s-0.5,0.8-0.7,1.2s-1.2,2-2.1,3.6c-0.9,1.6-1.7,2.8-1.7,2.9C65.1,37.8,65.6,37.6,65.8,37.2z"/>
	<path class="st0" d="M25.3,47.1c1.4,0.4,4.2,1.2,6.3,1.8c4.1,1.2,4.1,1.2,4.1,0.9c0-0.1-0.8-0.4-1.9-0.8c-1.1-0.3-3.2-0.9-4.7-1.4
		c-2.4-0.7-5.2-1.5-5.9-1.7c0,0-0.1,0-0.1,0l0,0c-0.1,0-0.2,0.1-0.2,0.2C22.8,46.3,23.7,46.7,25.3,47.1z"/>
	<path class="st0" d="M33.5,45.8c-1.8-0.8-3.4-1.4-3.6-1.4c-0.7,0,0.3,0.5,3.2,1.8c1.8,0.8,3.4,1.4,3.5,1.4
		C37.2,47.5,36.4,47,33.5,45.8z"/>
	<path class="st0" d="M36.4,40.3c-1.7-1.3-2.9-2.1-3-2c-0.1,0.1,0.9,1,2.7,2.3c1.6,1.2,3,2.2,3.1,2.2C39.7,42.8,39,42.2,36.4,40.3z"
		/>
	<path class="st0" d="M26.7,38.7c1.1,0.7,3.4,2,3.4,2c0,0,1.7,1,3.7,2.1c2,1.2,3.8,2.1,3.9,2c0.2-0.2-0.1-0.4-3.2-2.2
		c-1.6-0.9-3.7-2.2-4.7-2.8c-2.4-1.4-3.1-1.8-3.4-1.8v0c0,0-0.1,0-0.1,0C26.1,38.2,26.2,38.4,26.7,38.7z"/>
	<path class="st0" d="M29.9,65.4c-0.2,0.2-0.2,0.2,0.1,0.2c0.4,0,7-2.6,7-2.8c0-0.1-0.1-0.1-0.3-0.1c-0.3,0-1,0.3-2.3,0.8
		C31,64.8,30.1,65.1,29.9,65.4z"/>
</g>
</svg>
