<?xml version="1.0" encoding="utf-8"?>
<!-- Generator: Adobe Illustrator 19.1.0, SVG Export Plug-In . SVG Version: 6.00 Build 0)  -->
<svg version="1.1" id="Library" xmlns="http://www.w3.org/2000/svg" xmlns:xlink="http://www.w3.org/1999/xlink" x="0px" y="0px"
	 viewBox="0 0 74.5 72.3" style="enable-background:new 0 0 74.5 72.3;" xml:space="preserve">
<style type="text/css">
	.st0{fill:#FFFFFF;}
	.st1{fill-rule:evenodd;clip-rule:evenodd;fill:#FFFFFF;}
</style>
<path id="path5819-3_1_" class="st0" d="M37.3,0C16.7,0,0,16.2,0,36.2c0,20,16.7,36.2,37.3,36.2
	s37.3-16.2,37.3-36.2C74.5,16.2,57.8,0,37.3,0z M37.3,3.6c18.5,0,33.5,14.6,33.5,32.5c0,18-15,32.5-33.5,32.5S3.7,54.1,3.7,36.2
	S18.7,3.6,37.3,3.6L37.3,3.6z"/>
<path class="st1" d="M59.3,53.4h-44c-0.6,0-1-0.4-1-1c0-0.6,0.4-1,1-1h44c0.6,0,1,0.4,1,1C60.3,52.9,59.8,53.4,59.3,53.4z
	 M29.3,43.4c0.6,0,1,0.4,1,1c0,0.6-0.4,1-1,1h-8c-0.6,0-1-0.4-1-1c0-0.6,0.4-1,1-1h1v-13h-1c-0.6,0-1-0.4-1-1c0-0.6,0.4-1,1-1h8
	c0.6,0,1,0.4,1,1c0,0.6-0.4,1-1,1h-1v13H29.3z M26.3,30.4h-2v13h2V30.4z M41.3,43.4c0.6,0,1,0.4,1,1c0,0.6-0.4,1-1,1h-8
	c-0.6,0-1-0.4-1-1c0-0.6,0.4-1,1-1h1v-13h-1c-0.6,0-1-0.4-1-1c0-0.6,0.4-1,1-1h8c0.6,0,1,0.4,1,1c0,0.6-0.4,1-1,1h-1v13H41.3z
	 M38.3,30.4h-2v13h2V30.4z M57.3,48.4c0,0.6-0.4,1-1,1h-38c-0.6,0-1-0.4-1-1c0-0.6,0.4-1,1-1h38C56.8,47.4,57.3,47.8,57.3,48.4z
	 M53.3,43.4c0.6,0,1,0.4,1,1c0,0.6-0.4,1-1,1h-8c-0.6,0-1-0.4-1-1c0-0.6,0.4-1,1-1h1v-13h-1c-0.6,0-1-0.4-1-1c0-0.6,0.4-1,1-1h8
	c0.6,0,1,0.4,1,1c0,0.6-0.4,1-1,1h-1v13H53.3z M50.3,30.4h-2v13h2V30.4z M16.3,24.4l21-11.4l21,11.4v2h-42V24.4z M53.8,24.4
	l-16.5-8.6l-16.6,8.6H53.8z"/>
</svg>
