<?xml version="1.0" encoding="utf-8"?>
<!-- Generator: Adobe Illustrator 19.1.0, SVG Export Plug-In . SVG Version: 6.00 Build 0)  -->
<svg version="1.1" id="Calendar" xmlns="http://www.w3.org/2000/svg" xmlns:xlink="http://www.w3.org/1999/xlink" x="0px" y="0px"
	 viewBox="0 0 74.5 72.3" xml:space="preserve">
<style type="text/css">
	.st0{fill:#FFFFFF;}
	.st1{fill-rule:evenodd;clip-rule:evenodd;fill:#FFFFFF;}
</style>
<path id="path5819-3_1_" class="st0" d="M37.3,0C16.7,0,0,16.2,0,36.2c0,20,16.7,36.2,37.3,36.2
	s37.3-16.2,37.3-36.2C74.5,16.2,57.8,0,37.3,0z M37.3,3.6c18.5,0,33.5,14.6,33.5,32.5c0,18-15,32.5-33.5,32.5S3.7,54.1,3.7,36.2
	S18.7,3.6,37.3,3.6L37.3,3.6z"/>
<path class="st1" d="M56.3,55.2h-38c-2.2,0-4-1.8-4-4v-30c0-2.2,1.8-4,4-4h38c2.2,0,4,1.8,4,4v30C60.3,53.4,58.5,55.2,56.3,55.2z
	 M58.3,21.2c0-1.1-0.9-2-2-2h-38c-1.1,0-2,0.9-2,2v6h42V21.2z M58.3,29.2h-42v22c0,1.1,0.9,2,2,2h38c1.1,0,2-0.9,2-2V29.2z
	 M54.3,43.2h-2c-0.6,0-1-0.4-1-1v-2c0-0.6,0.4-1,1-1h2c0.6,0,1,0.4,1,1v2C55.3,42.7,54.8,43.2,54.3,43.2z M54.3,36.2h-2
	c-0.6,0-1-0.4-1-1v-2c0-0.6,0.4-1,1-1h2c0.6,0,1,0.4,1,1v2C55.3,35.7,54.8,36.2,54.3,36.2z M46.3,43.2h-2c-0.6,0-1-0.4-1-1v-2
	c0-0.6,0.4-1,1-1h2c0.6,0,1,0.4,1,1v2C47.3,42.7,46.8,43.2,46.3,43.2z M46.3,36.2h-2c-0.6,0-1-0.4-1-1v-2c0-0.6,0.4-1,1-1h2
	c0.6,0,1,0.4,1,1v2C47.3,35.7,46.8,36.2,46.3,36.2z M38.3,43.2h-2c-0.6,0-1-0.4-1-1v-2c0-0.6,0.4-1,1-1h2c0.6,0,1,0.4,1,1v2
	C39.3,42.7,38.8,43.2,38.3,43.2z M38.3,36.2h-2c-0.6,0-1-0.4-1-1v-2c0-0.6,0.4-1,1-1h2c0.6,0,1,0.4,1,1v2
	C39.3,35.7,38.8,36.2,38.3,36.2z M30.3,50.2h-2c-0.6,0-1-0.4-1-1v-2c0-0.6,0.4-1,1-1h2c0.6,0,1,0.4,1,1v2
	C31.3,49.7,30.8,50.2,30.3,50.2z M30.3,43.2h-2c-0.6,0-1-0.4-1-1v-2c0-0.6,0.4-1,1-1h2c0.6,0,1,0.4,1,1v2
	C31.3,42.7,30.8,43.2,30.3,43.2z M30.3,36.2h-2c-0.6,0-1-0.4-1-1v-2c0-0.6,0.4-1,1-1h2c0.6,0,1,0.4,1,1v2
	C31.3,35.7,30.8,36.2,30.3,36.2z M22.3,50.2h-2c-0.6,0-1-0.4-1-1v-2c0-0.6,0.4-1,1-1h2c0.6,0,1,0.4,1,1v2
	C23.3,49.7,22.8,50.2,22.3,50.2z M22.3,43.2h-2c-0.6,0-1-0.4-1-1v-2c0-0.6,0.4-1,1-1h2c0.6,0,1,0.4,1,1v2
	C23.3,42.7,22.8,43.2,22.3,43.2z M36.3,46.2h2c0.6,0,1,0.4,1,1v2c0,0.6-0.4,1-1,1h-2c-0.6,0-1-0.4-1-1v-2
	C35.3,46.6,35.7,46.2,36.3,46.2z"/>
</svg>
