<?xml version="1.0" encoding="utf-8"?>
<!-- Generator: Adobe Illustrator 19.1.0, SVG Export Plug-In . SVG Version: 6.00 Build 0)  -->
<svg version="1.1" id="WC" xmlns="http://www.w3.org/2000/svg" xmlns:xlink="http://www.w3.org/1999/xlink" x="0px" y="0px"
	 viewBox="0 0 74.5 72.3" style="enable-background:new 0 0 74.5 72.3;" xml:space="preserve">
<style type="text/css">
	.st0{fill:#FFFFFF;}
	.st1{fill-rule:evenodd;clip-rule:evenodd;fill:#FFFFFF;}
</style>
<path id="path5819-3_1_" class="st0" d="M37.3,0C16.7,0,0,16.2,0,36.2c0,20,16.7,36.2,37.3,36.2
	s37.3-16.2,37.3-36.2C74.5,16.2,57.8,0,37.3,0z M37.3,3.6c18.5,0,33.5,14.6,33.5,32.5c0,18-15,32.5-33.5,32.5S3.7,54.1,3.7,36.2
	S18.7,3.6,37.3,3.6L37.3,3.6z"/>
<path class="st1" d="M50.3,59.2h-26c-2.2,0-4-1.8-4-4v-38c0-2.2,1.8-4,4-4h19c0,0,0,0,0,0h0c0,0,0,0,0,0c0.3,0,0.6,0.2,0.8,0.4
	l9.8,9.8c0.2,0.2,0.4,0.5,0.4,0.8l0,0v0c0,0,0,0,0,0v31C54.3,57.4,52.5,59.2,50.3,59.2z M44.3,16.5v6.6h6.6L44.3,16.5z M52.3,25.2
	h-9c-0.6,0-1-0.4-1-1v-9h-18c-1.1,0-2,0.9-2,2v38c0,1.1,0.9,2,2,2h26c1.1,0,2-0.9,2-2V25.2z M46.3,51.2h-18c-0.6,0-1-0.4-1-1
	c0-0.6,0.4-1,1-1h18c0.6,0,1,0.4,1,1C47.3,50.7,46.8,51.2,46.3,51.2z M46.3,43.2h-18c-0.6,0-1-0.4-1-1c0-0.6,0.4-1,1-1h18
	c0.6,0,1,0.4,1,1C47.3,42.7,46.8,43.2,46.3,43.2z M46.3,35.2h-18c-0.6,0-1-0.4-1-1c0-0.6,0.4-1,1-1h18c0.6,0,1,0.4,1,1
	C47.3,34.7,46.8,35.2,46.3,35.2z"/>
</svg>
