<?xml version="1.0" encoding="utf-8"?>
<!-- Generator: Adobe Illustrator 19.1.0, SVG Export Plug-In . SVG Version: 6.00 Build 0)  -->
<svg version="1.1" id="Populi" xmlns="http://www.w3.org/2000/svg" xmlns:xlink="http://www.w3.org/1999/xlink" x="0px" y="0px"
	 viewBox="0 0 74.5 72.3" style="enable-background:new 0 0 74.5 72.3;" xml:space="preserve">
<style type="text/css">
	.st0{fill:#FFFFFF;}
	.st1{fill-rule:evenodd;clip-rule:evenodd;fill:#FFFFFF;}
</style>
<path id="path5819-3_1_" class="st0" d="M37.3,0C16.7,0,0,16.2,0,36.2c0,20,16.7,36.2,37.3,36.2
	s37.3-16.2,37.3-36.2C74.5,16.2,57.8,0,37.3,0z M37.3,3.6c18.5,0,33.5,14.6,33.5,32.5c0,18-15,32.5-33.5,32.5S3.7,54.1,3.7,36.2
	S18.7,3.6,37.3,3.6L37.3,3.6z"/>
<path class="st1" d="M56.3,52.7h-38c-2.2,0-4-1.8-4-4v-21c0-2.2,1.8-4,4-4h15v-4c0-2.2,1.8-4,4-4s4,1.8,4,4v4h15c2.2,0,4,1.8,4,4v21
	C60.3,50.9,58.5,52.7,56.3,52.7z M30.3,45.1C30.3,45.1,30.3,45.2,30.3,45.1c0,0,0-0.8,0-0.8s1.2-0.6,2-1.4c0.5-0.4,0.7-1.4,0.7-1.4
	c0.1-0.8,0.2-2.9,0.2-3.7c0-2.1-1-4.3-4-4.3c0,0,0,0,0,0v0c-3,0-4,2.2-4,4.3c0,0.8,0.1,2.9,0.2,3.7c0,0,0.2,0.9,0.7,1.4
	c0.9,0.8,2,1.4,2,1.4s0,0.8,0,0.8c0,0,0,0,0,0c0,0,0,1.1,0,1.5c0,1.4-1.4,2-2.2,2c0,0,0,0,0,0c-2.6,0.1-3.2,1-3.2,1
	c-0.2,0.3-0.4,0.5-0.6,1h14c-0.2-0.5-0.4-0.8-0.6-1c0,0-0.6-0.9-3.2-1c0,0,0,0,0,0c-0.9,0-2.2-0.7-2.2-2
	C30.3,46.3,30.3,45.1,30.3,45.1z M39.3,19.7c0-1.1-0.9-2-2-2c-1.1,0-2,0.9-2,2v6c0,1.1,0.9,2,2,2c1.1,0,2-0.9,2-2V19.7z M58.3,27.7
	c0-1.1-0.9-2-2-2h-15c0,2.2-1.8,4-4,4s-4-1.8-4-4h-15c-1.1,0-2,0.9-2,2v21c0,1.1,0.9,2,2,2h1.8c0.2-0.6,0.7-1.5,1.2-2.2
	c0,0,0.8-1.7,5-1.8c0,0,0-1,0-1c-0.3-0.2-0.7-0.5-1.1-0.8c-0.3-0.2-1.2-1-1.5-2.6c-0.1-0.5-0.5-3.1-0.5-4.2c0-3.2,1.3-6.4,6-6.4
	c0,0,0.1,0,0.1,0c4.7,0,6,3.2,6,6.4c0,1.1-0.4,3.6-0.5,4.2c-0.3,1.6-1.2,2.4-1.5,2.6c-0.3,0.3-0.7,0.6-1.1,0.8c0,0,0,1,0,1
	c4.2,0.1,5,1.8,5,1.8c0.5,0.7,0.9,1.7,1.2,2.2h17.8c1.1,0,2-0.9,2-2V27.7z M53.3,36.7h-12c-0.6,0-1-0.4-1-1c0-0.6,0.4-1,1-1h12
	c0.6,0,1,0.4,1,1C54.3,36.2,53.8,36.7,53.3,36.7z M41.3,40.7h2c0.6,0,1,0.4,1,1c0,0.6-0.4,1-1,1h-2c-0.6,0-1-0.4-1-1
	C40.3,41.1,40.7,40.7,41.3,40.7z M41.3,44.7h6c0.6,0,1,0.4,1,1c0,0.6-0.4,1-1,1h-6c-0.6,0-1-0.4-1-1C40.3,45.1,40.7,44.7,41.3,44.7z
	 M45.3,41.7c0-0.6,0.4-1,1-1h4c0.6,0,1,0.4,1,1c0,0.6-0.4,1-1,1h-4C45.7,42.7,45.3,42.2,45.3,41.7z M36.3,19.7h2v2h-2V19.7z"/>
</svg>
