<?xml version="1.0" encoding="utf-8"?>
<!-- Generator: Adobe Illustrator 19.1.0, SVG Export Plug-In . SVG Version: 6.00 Build 0)  -->
<svg version="1.1" id="Online_Pay" xmlns="http://www.w3.org/2000/svg" xmlns:xlink="http://www.w3.org/1999/xlink" x="0px" y="0px"
	 viewBox="0 0 74.5 72.3" style="enable-background:new 0 0 74.5 72.3;" xml:space="preserve">
<style type="text/css">
	.st0{fill:#FFFFFF;}
	.st1{fill-rule:evenodd;clip-rule:evenodd;fill:#FFFFFF;}
</style>
<path id="path5819-3_1_" class="st0" d="M37.3,0C16.7,0,0,16.2,0,36.2c0,20,16.7,36.2,37.3,36.2
	s37.3-16.2,37.3-36.2C74.5,16.2,57.8,0,37.3,0z M37.3,3.6c18.5,0,33.5,14.6,33.5,32.5c0,18-15,32.5-33.5,32.5S3.7,54.1,3.7,36.2
	S18.7,3.6,37.3,3.6L37.3,3.6z"/>
<path class="st1" d="M56.3,52.2h-38c-2.2,0-4-1.8-4-4v-24c0-2.2,1.8-4,4-4h38c2.2,0,4,1.8,4,4v24C60.3,50.4,58.5,52.2,56.3,52.2z
	 M16.3,33.2h42v-4h-42V33.2z M58.3,24.2c0-1.1-0.9-2-2-2h-38c-1.1,0-2,0.9-2,2v3h42V24.2z M58.3,35.2h-42v13c0,1.1,0.9,2,2,2h38
	c1.1,0,2-0.9,2-2V35.2z M39.3,41.2h-4c-0.6,0-1-0.4-1-1c0-0.6,0.4-1,1-1h4c0.6,0,1,0.4,1,1C40.3,40.7,39.8,41.2,39.3,41.2z
	 M30.3,41.2h-9c-0.6,0-1-0.4-1-1c0-0.6,0.4-1,1-1h9c0.6,0,1,0.4,1,1C31.3,40.7,30.8,41.2,30.3,41.2z M21.3,44.2h6c0.6,0,1,0.4,1,1
	c0,0.6-0.4,1-1,1h-6c-0.6,0-1-0.4-1-1C20.3,44.6,20.7,44.2,21.3,44.2z"/>
<g>
	<path class="st0" d="M51.5,46.3c-0.5,0-0.9-0.1-1.3-0.1c-0.4-0.1-0.7-0.2-0.9-0.3l0.4-1c0.2,0.1,0.4,0.2,0.7,0.3
		c0.3,0.1,0.7,0.1,1.1,0.2v-3c-0.3-0.1-0.5-0.2-0.8-0.4c-0.3-0.1-0.5-0.3-0.7-0.5c-0.2-0.2-0.4-0.4-0.5-0.7s-0.2-0.6-0.2-0.9
		c0-0.6,0.2-1.1,0.5-1.5s0.9-0.6,1.6-0.7v-1.1h0.9v1.1c0.4,0,0.8,0.1,1.1,0.1c0.3,0.1,0.5,0.1,0.8,0.3l-0.3,1
		c-0.2-0.1-0.4-0.2-0.6-0.2s-0.6-0.1-0.9-0.1v2.8c0.3,0.1,0.5,0.3,0.8,0.4c0.3,0.1,0.5,0.3,0.7,0.5c0.2,0.2,0.4,0.4,0.5,0.7
		c0.1,0.3,0.2,0.6,0.2,0.9c0,0.7-0.2,1.2-0.6,1.6s-1,0.7-1.7,0.8v1.1h-0.9V46.3z M51.7,38.6c-0.5,0-0.8,0.2-1,0.4
		c-0.2,0.2-0.3,0.5-0.3,0.8c0,0.3,0.1,0.6,0.4,0.8c0.2,0.2,0.5,0.4,0.9,0.5V38.6z M52.1,45.3c0.4,0,0.7-0.2,1-0.4
		c0.2-0.2,0.4-0.5,0.4-0.9c0-0.2,0-0.3-0.1-0.5c-0.1-0.1-0.2-0.3-0.3-0.4c-0.1-0.1-0.3-0.2-0.4-0.3s-0.3-0.2-0.5-0.3V45.3z"/>
</g>
</svg>
