<?xml version="1.0" encoding="utf-8"?>
<!-- Generator: Adobe Illustrator 19.1.0, SVG Export Plug-In . SVG Version: 6.00 Build 0)  -->
<svg version="1.1" id="Handbook" xmlns="http://www.w3.org/2000/svg" xmlns:xlink="http://www.w3.org/1999/xlink" x="0px" y="0px"
	 viewBox="0 0 74.5 72.3" style="enable-background:new 0 0 74.5 72.3;" xml:space="preserve">
<style type="text/css">
	.st0{fill:#FFFFFF;}
	.st1{fill-rule:evenodd;clip-rule:evenodd;fill:#FFFFFF;}
</style>
<path id="path5819-3_1_" class="st0" d="M37.3,0C16.7,0,0,16.2,0,36.2c0,20,16.7,36.2,37.3,36.2
	s37.3-16.2,37.3-36.2C74.5,16.2,57.8,0,37.3,0z M37.3,3.6c18.5,0,33.5,14.6,33.5,32.5c0,18-15,32.5-33.5,32.5S3.7,54.1,3.7,36.2
	S18.7,3.6,37.3,3.6L37.3,3.6z"/>
<path class="st1" d="M54.3,58.2L54.3,58.2c0,0.6-0.4,1-1,1h-28h0c-2.8,0-5-2.2-5-5v-36c0-2.8,2.2-5,5-5h0h26h0
	c0.4,0,0.8,0.3,0.9,0.6c0.1,0.1,0.1,0.3,0.1,0.4v0v7l0,0h1l0,0c0.3,0,0.5,0.1,0.7,0.3c0.2,0.2,0.3,0.4,0.3,0.7v0V58.2z M22.3,54.2
	L22.3,54.2L22.3,54.2c0,1.7,1.3,3,3,3h3v-34h-3h0c-1.1,0-2.2-0.4-3-1V54.2z M50.3,21.2v-6h-25l0,0l0,0c-1.7,0-3,1.3-3,3
	c0,1.7,1.3,3,3,3H50.3L50.3,21.2z M52.3,23.2h-22v34h22V23.2z M25.3,19.2c-0.6,0-1-0.4-1-1c0-0.6,0.4-1,1-1h22c0.6,0,1,0.4,1,1
	c0,0.6-0.4,1-1,1H25.3z"/>
</svg>
